<?xml version="1.0" encoding="utf-8"?>
<!-- Generator: Adobe Illustrator 27.5.0, SVG Export Plug-In . SVG Version: 6.00 Build 0)  -->
<svg version="1.1" id="_x3C_Layer_x3E_" xmlns="http://www.w3.org/2000/svg" xmlns:xlink="http://www.w3.org/1999/xlink" x="0px"
	 y="0px" viewBox="0 0 2760 1840" style="enable-background:new 0 0 2760 1840;" xml:space="preserve">
<rect style="fill:#FFFFFF;" width="2760" height="1840"/>
<g>
	<g>
		<path style="fill:#EBF3FA;" d="M2659.023,1183.611c-2.271,114.966-34.675,219.938-85.119,323.318c0,0-192.07,0.032-465.803,0.075
			c-678.62,0.097-1859.125,0.258-1859.211,0.193c-0.473-0.365-0.945-0.729-1.417-1.096c-55.298-42.958-75.482-105.728-63.29-175.604
			c0-0.011,0-0.021,0.011-0.032c13.169-76.095,64.085-158.725,143.044-228.571c112.907-99.867,203.135-125.958,143.871-335.511
			c-16.743-59.222-12.762-112.573,3.852-159.84c52.578-149.74,231.79-238.263,279.357-258.043
			c158.936-66.149,383.054-63.139,552.018-27.69c271.504,56.97,366.85,209.414,448.041,292.623
			c30.127,30.813,58.17,51.709,92.559,53.963c56.168,3.637,136.248-26.702,233.496-35.644
			c72.638-6.685,154.742-1.438,243.328,38.885c97.2,44.145,192.664,129.948,246.839,208.63
			C2633.275,970.306,2661.144,1073.559,2659.023,1183.611z"/>
	</g>
	<g style="opacity:0.5;">
		<g>
			<rect x="1968.842" y="865.081" style="fill:#98BAF4;" width="519.859" height="640.308"/>
		</g>
		<g>
			<rect x="2020.691" y="896.393" style="fill:#EDF4FF;" width="468.01" height="69.748"/>
		</g>
		<g>
			<rect x="1635.317" y="1011.252" style="fill:#EBF3FF;" width="587.118" height="496.332"/>
		</g>
		<g>
			<rect x="1620.799" y="993.217" style="fill:#FFFFFF;" width="610.823" height="18.035"/>
		</g>
		<g>
			<rect x="1958.358" y="856.063" style="fill:#FFFFFF;" width="539.993" height="18.035"/>
		</g>
		<g>
			<rect x="1635.317" y="1056.116" style="fill:#AFCDFB;" width="379.869" height="92.252"/>
		</g>
		<g>
			<rect x="1280.948" y="1070.052" style="fill:#AFCDFB;" width="354.369" height="196.548"/>
		</g>
		<g>
			<rect x="1280.948" y="1307.494" style="fill:#AFCDFB;" width="354.369" height="196.549"/>
		</g>
		<g>
			<rect x="1330.063" y="1266.6" style="fill:#7FA8E5;" width="305.254" height="40.895"/>
		</g>
		<g>
			<g>
				<path style="fill:#FFFFFF;" d="M1746.611,1086.198h7.059v12.698h13.019v-12.698h7.06v32.088h-7.06v-12.881h-13.019v12.881
					h-7.059V1086.198z"/>
			</g>
			<g>
				<path style="fill:#FFFFFF;" d="M1780.029,1102.242c0-9.122,7.196-16.594,17.098-16.594c9.902,0,17.008,7.38,17.008,16.594
					c0,9.122-7.197,16.595-17.099,16.595C1787.134,1118.837,1780.029,1111.456,1780.029,1102.242z M1806.754,1102.242
					c0-5.501-4.033-10.084-9.718-10.084s-9.626,4.492-9.626,10.084c0,5.501,4.033,10.086,9.717,10.086
					C1802.812,1112.328,1806.754,1107.835,1806.754,1102.242z"/>
			</g>
			<g>
				<path style="fill:#FFFFFF;" d="M1817.986,1113.61l4.172-4.996c2.889,2.384,5.913,3.896,9.581,3.896
					c2.888,0,4.629-1.146,4.629-3.116c0-1.788-1.1-2.704-6.463-4.08c-6.464-1.65-10.635-3.438-10.635-9.901
					c0-5.822,4.675-9.672,11.23-9.672c4.675,0,8.663,1.466,11.919,4.08l-3.668,5.316c-2.842-1.971-5.638-3.163-8.343-3.163
					c-2.704,0-4.126,1.238-4.126,2.889c0,2.108,1.376,2.797,6.923,4.217c6.509,1.696,10.177,4.034,10.177,9.719
					c0,6.372-4.859,9.947-11.781,9.947C1826.742,1118.745,1821.837,1117.049,1817.986,1113.61z"/>
			</g>
			<g>
				<path style="fill:#FFFFFF;" d="M1849.526,1086.198h13.109c7.656,0,12.286,4.538,12.286,11.185
					c0,7.427-5.776,11.277-12.973,11.277h-5.364v9.626h-7.059V1086.198z M1862.178,1102.38c3.529,0,5.593-2.108,5.593-4.951
					c0-3.162-2.201-4.858-5.729-4.858h-5.456v9.81H1862.178z"/>
			</g>
			<g>
				<path style="fill:#FFFFFF;" d="M1880.469,1086.198h7.06v32.088h-7.06V1086.198z"/>
			</g>
			<g>
				<path style="fill:#FFFFFF;" d="M1903.022,1092.707h-9.763v-6.509h26.586v6.509h-9.763v25.579h-7.061V1092.707z"/>
			</g>
			<g>
				<path style="fill:#FFFFFF;" d="M1932.133,1085.969h6.51l13.751,32.317h-7.38l-2.934-7.196h-13.569l-2.934,7.196h-7.196
					L1932.133,1085.969z M1939.559,1104.855l-4.264-10.406l-4.263,10.406H1939.559z"/>
			</g>
			<g>
				<path style="fill:#FFFFFF;" d="M1957.346,1086.198h7.059v25.67h15.999v6.418h-23.058V1086.198z"/>
			</g>
		</g>
		<g>
			<rect x="2251.941" y="1270.227" style="fill:#AFCDFB;" width="236.758" height="156.25"/>
		</g>
		<g>
			<rect x="2251.941" y="1040.16" style="fill:#AFCDFB;" width="236.758" height="156.25"/>
		</g>
		<g>
			<rect x="2025.619" y="900.106" style="fill:#AFCDFB;" width="463.082" height="61.558"/>
		</g>
		<g>
			<polygon style="fill:#DFEBFD;" points="1635.317,1017.444 2222.436,1035.149 2222.436,1011.252 1635.317,1011.252 			"/>
		</g>
		<g>
			<rect x="1258.777" y="1068.878" style="fill:#FFFFFF;" width="376.54" height="19.459"/>
		</g>
		<g>
			<g>
				<rect x="1726.688" y="1286.951" style="fill:#98BAF4;" width="412.555" height="215.518"/>
			</g>
			<g>
				<rect x="1740.554" y="1302.021" style="fill:#FFFFFF;" width="386.737" height="201.173"/>
			</g>
			<g>
				<rect x="1755.196" y="1314.746" style="fill:#AFCDFB;" width="358.237" height="46.225"/>
			</g>
			<g>
				<rect x="1755.196" y="1373.525" style="fill:#AFCDFB;" width="104.756" height="128.801"/>
			</g>
			<g>
				<rect x="1869.92" y="1373.525" style="fill:#AFCDFB;" width="128.792" height="128.801"/>
			</g>
			<g>
				<rect x="2007.568" y="1373.525" style="fill:#AFCDFB;" width="105.865" height="128.801"/>
			</g>
			<g>
				<polygon style="fill:#CCE1FF;" points="1912.119,1373.525 1998.712,1373.525 1998.712,1421.192 1983.277,1502.326 
					1887.616,1502.326 				"/>
			</g>
			<g>
				<g>
					<g>
						<rect x="1886.804" y="1398.034" style="fill:#FFFFFF;" width="96.351" height="104.436"/>
					</g>
					<g>
						<rect x="1891.396" y="1402.755" style="fill:#98BAF4;" width="87.165" height="99.715"/>
					</g>
					<g>
						<rect x="1933.355" y="1402.755" style="fill:#FFFFFF;" width="3.247" height="99.715"/>
					</g>
				</g>
				<g>
					<g>
						<path style="fill:#FFFFFF;" d="M1925.588,1452.611c0-1.136,0.922-2.058,2.06-2.058s2.059,0.922,2.059,2.058
							c0,1.138-0.921,2.061-2.059,2.061S1925.588,1453.749,1925.588,1452.611z"/>
					</g>
					<g>
						<path style="fill:#FFFFFF;" d="M1940.252,1452.611c0-1.136,0.922-2.058,2.06-2.058s2.06,0.922,2.06,2.058
							c0,1.138-0.922,2.061-2.06,2.061S1940.252,1453.749,1940.252,1452.611z"/>
					</g>
				</g>
			</g>
			<g>
				<polygon style="fill:#CCE1FF;" points="1788.522,1373.525 1841.56,1373.525 1824.629,1502.326 1771.591,1502.326 				"/>
			</g>
			<g>
				<polygon style="fill:#CCE1FF;" points="1849.281,1314.746 1843.207,1360.971 1790.168,1360.971 1796.243,1314.746 				"/>
			</g>
			<g>
				<polygon style="fill:#CCE1FF;" points="2032.627,1373.525 2085.664,1373.525 2068.733,1502.326 2015.695,1502.326 				"/>
			</g>
			<g>
				<polygon style="fill:#CCE1FF;" points="2093.387,1314.746 2087.311,1360.971 2034.273,1360.971 2040.348,1314.746 				"/>
			</g>
			<g>
				<polygon style="fill:#CCE1FF;" points="2018.961,1314.746 2010.166,1360.971 1914.506,1360.971 1923.302,1314.746 				"/>
			</g>
		</g>
		<g>
			<polygon style="fill:#CCE1FF;" points="2007.652,1383.016 2007.848,1383.016 2007.652,1384.044 			"/>
		</g>
		<g>
			<polygon style="fill:#BDD7FD;" points="2362.601,1196.41 2284.263,1196.41 2318.535,1040.162 2396.873,1040.162 			"/>
		</g>
		<g>
			<polygon style="fill:#CCE1FF;" points="2432.01,1426.476 2353.673,1426.476 2387.945,1270.229 2466.283,1270.229 			"/>
		</g>
		<g>
			<polygon style="fill:#CCE1FF;" points="2320.601,1270.227 2286.328,1426.477 2251.941,1426.477 2251.941,1270.227 			"/>
		</g>
		<g>
			<polygon style="fill:#CCE1FF;" points="2488.699,1040.16 2488.699,1196.41 2402.584,1196.41 2440.832,1040.16 			"/>
		</g>
		<g>
			<rect x="2139.014" y="900.106" style="fill:#EDF4FF;" width="6.527" height="61.558"/>
		</g>
		<g>
			<rect x="2270.799" y="900.106" style="fill:#EDF4FF;" width="6.528" height="61.558"/>
		</g>
		<g>
			<rect x="2399.32" y="900.106" style="fill:#EDF4FF;" width="6.528" height="61.558"/>
		</g>
		<g style="opacity:0.5;">
			<g>
				<g>
					<rect x="1322.466" y="1140.596" style="fill:#98BAF4;" width="39.257" height="61.965"/>
				</g>
				<g>
					<g>
						<g>
							<path style="fill:#FFFFFF;" d="M1363.345,1204.557h-43.249V1138.6h43.249V1204.557z M1324.089,1200.564h35.264v-57.973
								h-35.264V1200.564z"/>
						</g>
					</g>
					<g>
						<rect x="1323.589" y="1161.318" style="fill:#FFFFFF;" width="36.263" height="2.994"/>
					</g>
					<g>
						<rect x="1323.589" y="1181.939" style="fill:#FFFFFF;" width="36.263" height="2.994"/>
					</g>
					<g>
						
							<rect x="1310.592" y="1169.936" transform="matrix(-1.836970e-16 1 -1 -1.836970e-16 2513.1523 -170.2872)" style="fill:#FFFFFF;" width="62.256" height="2.994"/>
					</g>
				</g>
			</g>
			<g>
				<g>
					<rect x="1435.818" y="1140.596" style="fill:#98BAF4;" width="39.256" height="61.965"/>
				</g>
				<g>
					<g>
						<g>
							<path style="fill:#FFFFFF;" d="M1476.696,1204.557h-43.249V1138.6h43.249V1204.557z M1437.439,1200.564h35.265v-57.973
								h-35.265V1200.564z"/>
						</g>
					</g>
					<g>
						<rect x="1436.94" y="1161.318" style="fill:#FFFFFF;" width="36.263" height="2.994"/>
					</g>
					<g>
						<rect x="1436.94" y="1181.939" style="fill:#FFFFFF;" width="36.263" height="2.994"/>
					</g>
					<g>
						
							<rect x="1423.944" y="1169.936" transform="matrix(-1.836970e-16 1 -1 -1.836970e-16 2626.5044 -283.6392)" style="fill:#FFFFFF;" width="62.256" height="2.993"/>
					</g>
				</g>
			</g>
			<g>
				<g>
					<rect x="1549.17" y="1140.596" style="fill:#98BAF4;" width="39.256" height="61.965"/>
				</g>
				<g>
					<g>
						<g>
							<path style="fill:#FFFFFF;" d="M1590.048,1204.557h-43.249V1138.6h43.249V1204.557z M1550.791,1200.564h35.264v-57.973
								h-35.264V1200.564z"/>
						</g>
					</g>
					<g>
						<rect x="1550.292" y="1161.318" style="fill:#FFFFFF;" width="36.263" height="2.994"/>
					</g>
					<g>
						<rect x="1550.292" y="1181.939" style="fill:#FFFFFF;" width="36.263" height="2.994"/>
					</g>
					<g>
						
							<rect x="1537.295" y="1169.935" transform="matrix(-1.836970e-16 1 -1 -1.836970e-16 2739.856 -396.9908)" style="fill:#FFFFFF;" width="62.256" height="2.995"/>
					</g>
				</g>
			</g>
		</g>
		<g style="opacity:0.5;">
			<g>
				<g>
					<rect x="1322.466" y="1353.062" style="fill:#98BAF4;" width="39.257" height="61.964"/>
				</g>
				<g>
					<g>
						<g>
							<path style="fill:#FFFFFF;" d="M1363.345,1417.021h-43.249v-65.957h43.249V1417.021z M1324.089,1413.03h35.264v-57.973
								h-35.264V1413.03z"/>
						</g>
					</g>
					<g>
						<rect x="1323.589" y="1373.785" style="fill:#FFFFFF;" width="36.263" height="2.993"/>
					</g>
					<g>
						<rect x="1323.589" y="1394.404" style="fill:#FFFFFF;" width="36.263" height="2.995"/>
					</g>
					<g>
						
							<rect x="1310.592" y="1382.401" transform="matrix(-1.836970e-16 1 -1 -1.836970e-16 2725.6177 42.1782)" style="fill:#FFFFFF;" width="62.255" height="2.994"/>
					</g>
				</g>
			</g>
			<g>
				<g>
					<rect x="1435.818" y="1353.062" style="fill:#98BAF4;" width="39.256" height="61.964"/>
				</g>
				<g>
					<g>
						<g>
							<path style="fill:#FFFFFF;" d="M1476.696,1417.021h-43.249v-65.957h43.249V1417.021z M1437.439,1413.03h35.265v-57.973
								h-35.265V1413.03z"/>
						</g>
					</g>
					<g>
						<rect x="1436.94" y="1373.785" style="fill:#FFFFFF;" width="36.263" height="2.993"/>
					</g>
					<g>
						<rect x="1436.94" y="1394.404" style="fill:#FFFFFF;" width="36.263" height="2.995"/>
					</g>
					<g>
						
							<rect x="1423.944" y="1382.401" transform="matrix(-1.836970e-16 1 -1 -1.836970e-16 2838.9697 -71.1739)" style="fill:#FFFFFF;" width="62.255" height="2.993"/>
					</g>
				</g>
			</g>
			<g>
				<g>
					<rect x="1549.17" y="1353.062" style="fill:#98BAF4;" width="39.256" height="61.964"/>
				</g>
				<g>
					<g>
						<g>
							<path style="fill:#FFFFFF;" d="M1590.048,1417.021h-43.249v-65.957h43.249V1417.021z M1550.791,1413.03h35.264v-57.973
								h-35.264V1413.03z"/>
						</g>
					</g>
					<g>
						<rect x="1550.292" y="1373.785" style="fill:#FFFFFF;" width="36.263" height="2.993"/>
					</g>
					<g>
						<rect x="1550.292" y="1394.404" style="fill:#FFFFFF;" width="36.263" height="2.995"/>
					</g>
					<g>
						
							<rect x="1537.296" y="1382.4" transform="matrix(-1.836970e-16 1 -1 -1.836970e-16 2952.3213 -184.5254)" style="fill:#FFFFFF;" width="62.255" height="2.995"/>
					</g>
				</g>
			</g>
		</g>
		<g>
			<rect x="1626.193" y="1221.761" style="fill:#D4E6FF;" width="613.544" height="21.593"/>
		</g>
		<g>
			<rect x="1709.167" y="1498.003" style="fill:#7FA8E5;" width="458.378" height="9.581"/>
		</g>
		<g>
			<path style="fill:#ACD29A;" d="M1697.637,1507.584c0,0-2.547-22.536,20.302-28.248c22.848-5.713,31.813-26.112,58.339-8.977
				c26.526,17.137,18.131,37.225,18.131,37.225H1697.637z"/>
		</g>
	</g>
	<g>
		<g>
			<path style="fill:#FFB27D;" d="M1134.829,1146.046c0,0,7.304,25.654,5.575,32.068c-1.728,6.413-9.424,18.385-12.844,17.958
				c-3.421-0.428,0-41.047,0-41.047L1134.829,1146.046z"/>
		</g>
		<g>
			<path style="fill:#163560;" d="M1010.866,947.343c-2.66-5.13,58.027-23.603,58.989,27.024c0,0,113.686-2.795,59.402-66.16
				c-18.792-21.936-16.858-40.074-16.295-56.957c0.571-16.888-11.705-65.96-53.784-61.019c0,0-11.021-4.485-24.772,2.65
				C1003.131,809.107,933.069,966.013,1010.866,947.343z"/>
		</g>
		<g>
			<path style="fill:#AEC3FF;" d="M1140.383,1153.746c0,0-0.641,3.078-7.029,4.631c-2.95,0.718-7.132,1.104-13.032,0.718
				c-1.256-0.09-2.604-0.205-4.027-0.372c-2.707-0.295-5.708-0.744-9.043-1.371l2.347-139.187l-9.8-108.62
				c0,0,20.922,9.89,31.183,41.957c7.876,24.628,9.198,130.696,9.391,178.604
				C1140.435,1144.588,1140.383,1153.746,1140.383,1153.746z"/>
		</g>
		<g style="opacity:0.3;">
			<path style="fill:#8C9DF4;" d="M1140.383,1153.746c0,0-0.641,3.078-7.029,4.631c-2.95,0.718-7.132,1.104-13.032,0.718
				l1.887-103.694c0,0,1.552,56.619,18.163,74.705C1140.435,1144.588,1140.383,1153.746,1140.383,1153.746z"/>
		</g>
		<g>
			<path style="fill:#23417C;" d="M933.951,1448.106c0,0-12.74,11.625-10.254,19.886c2.486,8.26,13.982,13.767,15.535,23.862
				c1.554,10.097,7.768,15.604,13.36,15.604c5.593,0,26.663,0,26.663,0s4.117-7.105-5.826-9.246
				c-9.941-2.142-13.691-14.006-13.069-25.019c0.621-11.014-0.932-25.699-0.932-25.699l-21.128-4.896L933.951,1448.106z"/>
		</g>
		<g>
			<path style="fill:#23417C;" d="M1041.772,1453.041c0,0-4.583,49.251,1.01,52.004l71.573-0.146c0,0,0-8.261-11.496-10.096
				c-11.495-1.837-31.691-8.567-35.109-23.558C1064.332,1456.254,1041.772,1453.041,1041.772,1453.041z"/>
		</g>
		<g>
			<path style="fill:#233862;" d="M1100.216,1048.863c0,0,20.636,64.229,21.96,86.097c1.326,21.868-39.445,310.655-41.085,320.731
				c-1.546,9.498-13.341,15.554-13.341,15.554s-5.425,3.199-13.166,1.014c-10.741-3.033-14.137-6.665-14.137-6.665
				s-16.062-205.961-6.122-279.534s10.057-137.196,10.057-137.196H1100.216z"/>
		</g>
		<g>
			<path style="fill:#2B478B;" d="M1012.789,1046.947c0,0-31.478,42.234-34.412,70.783c-2.935,28.551-4.604,128.834-10.856,156.666
				c-6.251,27.832-29.221,81.394-29.221,168.202c0,0,2.387,4.976,9.76,7.627c2.358,0.847,5.516,1.669,8.582,2.372
				c6.08,1.395,12.316-1.577,15.092-7.164c15.529-31.266,64.996-132.108,67.531-153.041c1.795-14.814,12.334-103.733,46.402-161.265
				c8.18-13.812,7.688-74.017,7.688-74.017L1012.789,1046.947z"/>
		</g>
		<g>
			<path style="fill:#2B478B;" d="M986.715,964.237c0,0-1.068,15.038,0,33.082c0.709,11.961,12.808,27.983,14.523,31.946
				c4.309,9.939,9.166,11.557,9.166,11.557l37.58,9.211l3.149,20.119c0,0,31.532,13.469,53.406-7.381
				c19.035-18.144,17.305-74.924,9.685-104.743c-7.621-29.82-19.265-50.529-19.265-50.529s-28.248-11.147-78.273-2.823
				L986.715,964.237z"/>
		</g>
		<g>
			<path style="fill:#AEC3FF;" d="M1030.215,901.589c0,0-15.791,2.638-25.416,5.831l-7.086,86.625h65.284l-24.53-64.35
				L1030.215,901.589z"/>
		</g>
		<g>
			<path style="fill:#AEC3FF;" d="M1062.997,994.045l-7.165,266.897c0,0-35.773,16.983-104.094,0l17.621-284.132L1062.997,994.045z"
				/>
		</g>
		<g>
			<path style="fill:#C65447;" d="M952.685,1056.07l48.307,42.064c3.491,3.04,8.784,2.674,11.823-0.817l61.641-70.788
				c3.038-3.49,2.673-8.783-0.817-11.823l-48.308-42.064c-3.49-3.04-8.785-2.674-11.823,0.816l-61.641,70.788
				C948.829,1047.737,949.193,1053.031,952.685,1056.07z"/>
		</g>
		<g>
			<path style="fill:#FFB27D;" d="M1024.152,1050.761c0.687,0.183,25.659,3.117,25.664,8.277c0.004,5.967-7.32,13.961-14.22,13.584
				c-2.796-0.152-15.68-12-15.68-12L1024.152,1050.761z"/>
		</g>
		<g>
			<path style="fill:#FFB27D;" d="M1036.977,901.944c2.841-6.892,4.499-17.388,4.453-30.378l1.887,0.372l31.724,6.281
				c0,0-0.722,9.983-0.743,19.389c0,0.078-0.001,0.156-0.001,0.234c-0.039,8.168,5.519,16.364-7.584,19.604
				C1062.663,918.447,1031.009,916.417,1036.977,901.944z"/>
		</g>
		<g>
			<path style="fill:#E8945B;" d="M1075.04,878.22c0,0-0.722,9.983-0.743,19.389c-17.752-0.501-27.136-16.694-30.98-25.67
				L1075.04,878.22z"/>
		</g>
		<g>
			<path style="fill:#FFB27D;" d="M1080.969,887.125c0,0-42.001,0.693-42.03-25.47c-0.028-26.162-5.47-43.692,21.347-45.241
				c26.815-1.549,32.036,8.429,34.17,17.159C1096.589,842.303,1091.893,886.271,1080.969,887.125z"/>
		</g>
		<g>
			<path style="fill:#163560;" d="M1079.413,815.773c0,0-11.499,30.694-29.146,35.233c-17.649,4.537-25.305-0.191-25.305-0.191
				s13.537-10.754,16.347-29.525C1041.309,821.289,1070.74,801.164,1079.413,815.773z"/>
		</g>
		<g>
			<path style="fill:#163560;" d="M1076.563,818.265c0,0,8.528,3.188,12.037,9.406c3.433,6.083,6.356,14.138,5.679,24.02
				c0,0,8.663-20.862-1.073-32.664C1082.881,806.511,1076.563,818.265,1076.563,818.265z"/>
		</g>
		<g>
			<path style="fill:#FFB27D;" d="M1024.152,1050.761c0,0,5.985-1.923,9.985-1.362c4,0.56,6.959-0.08,6.959,1.039
				c0,1.121-5.164,1.644-6.261,2.182C1033.737,1053.158,1024.152,1050.761,1024.152,1050.761z"/>
		</g>
		<g>
			<path style="fill:#AEC3FF;" d="M1016.687,904.676c0,0-29.815,2.091-41.244,29.873c-11.428,27.783-33.112,74.429-33.112,82.276
				c0,7.848,12.112,32.038,77.164,45.946c0,0,6.729-7.078,6.32-12.675c0,0-40.607-34.878-40.498-38.956
				c0.207-7.71,6.657-17.889,42.31-53.552C1037.318,947.893,1016.687,904.676,1016.687,904.676z"/>
		</g>
		<g>
			<path style="fill:#8C9DF4;" d="M1048.246,948.295c0,0-11.192-30.632-9.005-53.681c0,0-8.733,2.2-13.253,8.7
				c0,0-2.046,35.253,4.367,51.607c0,0,9.554,0.428,11.638-0.695c0,0-4.167,7.056-3.526,7.857c0.64,0.801,24.53,31.961,24.53,31.961
				L1048.246,948.295z"/>
		</g>
		<g>
			<path style="fill:#AEC3FF;" d="M1097.63,980.362l7.053,274.5c0,0,16.678,0.642,26.298-9.621l-8.772-297.424
				c0,0-9.181-35.79-27.248-40.318c-18.066-4.527-18.066-4.527-18.066-4.527L1097.63,980.362z"/>
		</g>
		<g>
			<path style="fill:#8C9DF4;" d="M1074.297,897.608c0,0,0.012,4.263,1.105,11.889c2.964,20.667,24.977,62.108,22.479,80.605
				c0,0,2.315-32.187,2.315-39.028l-6.413-4.488l8.337-3.422C1102.12,943.163,1086.558,904.323,1074.297,897.608z"/>
		</g>
		<g>
			
				<rect x="978.766" y="1152.887" transform="matrix(0.9974 0.0724 -0.0724 0.9974 86.3102 -70.0555)" style="fill:#8C9DF4;" width="62.331" height="6.359"/>
		</g>
		<g style="opacity:0.3;">
			<path style="fill:#8C9DF4;" d="M978.617,1156.982c0,0-4.53,38.555,0,42.082c4.531,3.527,51.85,8.017,56.25,4.489
				c4.4-3.526,5.918-42.061,5.918-42.061L978.617,1156.982z"/>
		</g>
	</g>
	<g>
		<path style="fill:#F8FCFF;" d="M643.835,564.968c0,0,25.386-42.678,86.095-37.936c0,0,88.137-71.133,182.123-9.483
			c0,0,99.907-15.275,173.896,13.225c49.33,19.003,65.624,38.937,65.624,38.937L643.835,564.968z"/>
	</g>
	<g>
		<path style="fill:#F8FCFF;" d="M1161.444,522.634c0,0,18.534-46.794,62.853-41.595c0,0,64.344-77.994,132.957-10.4
			c0,0,72.937-16.749,126.951,14.502c36.014,20.835,47.908,42.691,47.908,42.691L1161.444,522.634z"/>
	</g>
	<g>
		<path style="fill:#F8FCFF;" d="M1740.379,813.854c0,0,12.738-31.481,43.202-27.984c0,0,44.228-52.471,91.39-6.996
			c0,0,50.134-11.267,87.262,9.757c24.754,14.017,32.93,28.721,32.93,28.721L1740.379,813.854z"/>
	</g>
	<g>
		<path style="fill:#F8FCFF;" d="M1021.47,682.071c0,0,14.744-26.023,50.003-23.132c0,0,51.191-43.373,105.779-5.782
			c0,0,58.027-9.314,101,8.064c28.652,11.586,38.115,23.741,38.115,23.741L1021.47,682.071z"/>
	</g>
	<g>
		<g>
			<g>
				<path style="fill:#233862;" d="M2404.563,1355.059v17.619c0,1.565-0.373,3.077-1.035,4.404
					c-1.619,3.238-4.989,5.466-8.838,5.466h-3.156c-5.413,0-9.871-4.431-9.871-9.87v-17.619c0-1.858,0.53-3.582,1.433-5.069
					c0-0.025,0-0.025,0-0.025c1.751-2.865,4.882-4.776,8.438-4.776h3.156C2400.13,1345.188,2404.563,1349.646,2404.563,1355.059z"/>
			</g>
			<g style="opacity:0.3;">
				<path style="fill:#233862;" d="M2403.527,1377.082c-1.619,3.238-4.989,5.466-8.838,5.466h-3.156
					c-5.413,0-9.871-4.431-9.871-9.87v-17.619c0-1.858,0.53-3.582,1.433-5.069
					C2383.281,1351.078,2387.473,1375.251,2403.527,1377.082z"/>
			</g>
		</g>
		<g>
			<polygon style="fill:#172944;" points="2248.071,1484.018 2296.864,1484.018 2296.864,1434.771 2245.961,1434.771 			"/>
		</g>
		<g>
			<path style="fill:#FFFFFF;" d="M2401.929,1379.919l-239.722,5.911v-126.411h157.418c15.006,0,28.75,8.4,35.593,21.755
				l10.302,20.107L2401.929,1379.919z"/>
		</g>
		<g>
			<path style="fill:#233862;" d="M2265.746,1476.005c0,13.37,6.896,28.112,6.896,28.112s10.249,0,11.674,0
				c10.255,0,18.568-12.586,18.568-28.112s-19.986-28.112-30.242-28.112S2265.746,1460.479,2265.746,1476.005z"/>
		</g>
		<g>
			<ellipse style="fill:#2B478B;" cx="2272.642" cy="1476.005" rx="18.569" ry="28.112"/>
		</g>
		<g>
			<ellipse style="fill:#AFCDFB;" cx="2272.876" cy="1476.005" rx="13.987" ry="21.176"/>
		</g>
		<g>
			<path style="fill:#233862;" d="M2399.969,1476.005c0,13.37,6.896,28.112,6.896,28.112s10.249,0,11.673,0
				c10.256,0,18.569-12.586,18.569-28.112s-19.987-28.112-30.242-28.112C2396.609,1447.893,2399.969,1460.479,2399.969,1476.005z"/>
		</g>
		<g>
			<path style="fill:#2B478B;" d="M2388.295,1476.005c0,15.526,8.314,28.112,18.57,28.112c10.255,0,18.569-12.586,18.569-28.112
				s-8.314-28.112-18.569-28.112C2396.609,1447.893,2388.295,1460.479,2388.295,1476.005z"/>
		</g>
		<g>
			<path style="fill:#233862;" d="M2091.738,1476.005c0,13.37,6.896,28.112,6.896,28.112s10.25,0,11.675,0
				c10.256,0,18.568-12.586,18.568-28.112s-19.987-28.112-30.243-28.112C2088.379,1447.893,2091.738,1460.479,2091.738,1476.005z"/>
		</g>
		<g>
			<path style="fill:#2B478B;" d="M2080.065,1476.005c0,15.526,8.313,28.112,18.568,28.112c10.256,0,18.57-12.586,18.57-28.112
				s-8.314-28.112-18.57-28.112C2088.379,1447.893,2080.065,1460.479,2080.065,1476.005z"/>
		</g>
		<g>
			<path style="fill:#FFFFFF;" d="M2455.597,1462.737c0.027,11.754-9.072,16.581-20.801,16.581l-131.912,1.144
				c0.399-2.309-5.408-1.141-5.408-3.608c0-18.177-10.905-32.931-24.333-32.931c-13.453,0-26.232,9.885-26.232,28.062
				c0,2.468-2.929,5.843-2.53,8.151l-70.682-6.203c0,0-7.916-25.79-7.518-43.781c0.319-15.655,0.319-46.329-0.61-53.812
				c0-1.115,77.481-1.248,97.039-1.327c2.652-0.026,4.244-0.026,4.403-0.026l0.267,0.186l0.291,0.212
				c3.608,2.521,23.829,16.691,36.379,24.996c11.065,7.297,92.74,10.27,124.768,11.172c7.961,0.212,12.87,0.291,12.87,0.291
				s4.378,4.484,8.252,11.569c2.972,5.492,5.625,12.551,5.679,20.272c0.026,4.804,0.053,10.588,0.053,16.266
				C2455.597,1460.879,2455.597,1461.809,2455.597,1462.737z"/>
		</g>
		<g>
			<path style="fill:#98BAF4;" d="M2382.6,1374.986h-107.732c-2.494,0-4.749-1.46-5.784-3.716l-26.667-59.332
				c-0.877-1.936,0.557-4.139,2.68-4.139h113.648c2.494,0,4.777,1.486,5.785,3.794l19.104,43.649l4.777,10.906
				C2390.215,1370.315,2387.163,1374.986,2382.6,1374.986z"/>
		</g>
		<g>
			<path style="fill:#DFEBFD;" d="M2332.418,1459.947c-0.023,1.865-0.104,3.616-0.205,5.175
				c-0.773,10.328-11.147,18.893-11.147,18.893h-24.204c0.397-2.308,0.614-4.697,0.614-7.165c0-6.177-1.274-11.966-3.447-16.902
				c-4.276-9.6-12.022-16.027-20.883-16.027c-8.896,0-16.641,6.428-20.918,16.027c-2.172,4.937-7.276,10.339-7.276,16.516
				c0,2.468-2.111,2.425-1.715,4.733l-81.037,2.818v-224.586h69.977l0.332,41.851c0,0,1.18,6.274,3.568,11.883
				c2.139,5.004,4.982,11.669,8.076,18.926c6.369,14.877,13.809,32.235,18.46,42.928c2.333,5.414,3.981,9.1,4.402,9.896
				c1.308,2.49,20.724,13.012,37.137,22.351c4.096,2.331,8.008,4.583,11.397,6.619c4.834,2.912,8.61,5.369,10.396,6.983
				C2330.427,1424.903,2332.655,1445.865,2332.418,1459.947z"/>
		</g>
		<g>
			<polygon style="fill:#FFFFFF;" points="2441.587,1411.843 2313.9,1411.843 2267.279,1375.172 2267.013,1374.986 
				2395.814,1374.986 2432.485,1404.493 			"/>
		</g>
		<g>
			<path style="fill:#A8302D;" d="M2330.432,1433.39l-11.543-1.142c-4.033-0.397-7.297-3.424-8.013-7.403l-2.653-14.595
				c-0.054-0.237-0.08-0.45-0.054-0.688c8.226,4.723,15.151,8.942,17.778,11.303
				C2327.857,1422.59,2329.37,1427.365,2330.432,1433.39z"/>
		</g>
		<g>
			<path style="fill:#FFFFFF;" d="M2365.528,1301.279h-133.021c0,0-0.514-8.512-3.853-18.233
				c-2.972-8.585-8.107-18.159-17.096-23.624h108.698c17.72,0,33.42,9.464,39.657,23.624c0.294,0.587,0.55,1.174,0.771,1.761
				C2362.557,1289.723,2364.244,1295.226,2365.528,1301.279z"/>
		</g>
		<g>
			<path style="fill:#A2C2DD;" d="M2330.458,1433.39l-11.569-1.142c-4.033-0.397-7.297-3.424-8.013-7.403l-2.653-14.595
				c-0.054-0.237-0.08-0.477-0.054-0.716c8.226,4.75,15.151,8.97,17.778,11.33C2327.857,1422.59,2329.37,1427.365,2330.458,1433.39z
				"/>
		</g>
		<g>
			<path style="fill:#233862;" d="M2455.597,1462.737c0.027,11.754-6.995,22.392-22.413,21.785l-137.854,0.024
				c0.398-2.309,1.47-5.637,1.47-8.105c0-6.183-0.599-11.555-2.774-16.491h161.545
				C2455.597,1460.879,2455.597,1461.809,2455.597,1462.737z"/>
		</g>
		<g>
			<path style="fill:#233862;" d="M2248.783,1476.854c0,2.468,0.187,4.855,0.584,7.164H2162.2v-24.067h90.033
				C2250.058,1464.887,2248.783,1470.67,2248.783,1476.854z"/>
		</g>
		<g>
			<path style="fill:#233862;" d="M2365.698,1412.88h52.216c1.667,0,2.941,2.25,2.688,4.743l-1.854,18.146
				c-0.271,2.669-1.791,4.639-3.576,4.639h-43.019c-2.758,0-5.192-2.729-5.993-6.721l-3.098-15.428
				C2362.524,1415.582,2363.849,1412.88,2365.698,1412.88z"/>
		</g>
		<g>
			<path style="fill:#AFCDFB;" d="M2383.634,1355.243c-61.587-3.157-103.247-36.113-115.825-47.443h90.936
				c2.494,0,4.777,1.486,5.785,3.794L2383.634,1355.243z"/>
		</g>
		<g>
			<polygon style="fill:#FFFFFF;" points="2186.836,1259.417 2186.836,1472.952 1953.879,1476.005 1953.879,1259.417 			"/>
		</g>
		<g>
			<path style="fill:#DFEBFD;" d="M2365.528,1301.279h-133.021c0,0-0.514-8.512-3.853-18.233h131.26
				c0.294,0.587,0.55,1.174,0.771,1.761C2362.557,1289.723,2364.244,1295.226,2365.528,1301.279z"/>
		</g>
		<g>
			<path style="fill:#233862;" d="M2449.839,1423.412c-0.743,1.221-1.698,2.017-2.733,2.202l-17.91,3.317
				c-1.513,0.292-2.681-2.335-2.283-5.042l1.752-12.047l0.053-0.291l0.346-2.469c0.318-2.123,1.247-3.741,2.388-4.192l1.035-0.397
				l9.102,7.35C2441.587,1411.843,2445.965,1416.327,2449.839,1423.412z"/>
		</g>
		<g>
			<rect x="1953.883" y="1407.256" style="fill:#EA6A60;" width="372.063" height="18.934"/>
		</g>
		<g>
			<rect x="1953.879" y="1298.337" style="fill:#EA6A60;" width="232.957" height="18.926"/>
		</g>
		<g>
			<g>
				<path style="fill:#EA6A60;" d="M2037.198,1361.839c0-18.313,14.846-33.159,33.159-33.159c18.314,0,33.16,14.847,33.16,33.159
					c0,18.313-14.846,33.159-33.16,33.159C2052.044,1394.998,2037.198,1380.152,2037.198,1361.839z"/>
			</g>
			<g>
				<g>
					<g>
						<g>
							<path style="fill:#FFFFFF;" d="M2070.357,1391.198c-7.842,0-15.214-3.055-20.759-8.6c-5.546-5.546-8.599-12.917-8.599-20.76
								c0-7.842,3.053-15.214,8.599-20.759c5.545-5.546,12.917-8.6,20.759-8.6s15.215,3.054,20.76,8.6
								c5.545,5.545,8.599,12.917,8.599,20.759c0,7.843-3.054,15.214-8.599,20.76
								C2085.572,1388.144,2078.199,1391.198,2070.357,1391.198z M2070.357,1335.184c-7.12,0-13.814,2.772-18.85,7.807
								c-5.034,5.035-7.807,11.729-7.807,18.849s2.772,13.814,7.807,18.85c5.035,5.034,11.729,7.808,18.85,7.808
								s13.814-2.773,18.849-7.808c5.036-5.035,7.808-11.729,7.808-18.85s-2.771-13.813-7.808-18.849
								C2084.172,1337.956,2077.478,1335.184,2070.357,1335.184z"/>
						</g>
					</g>
					<g>
						<polygon style="fill:#FFFFFF;" points="2089.319,1357.051 2075.146,1357.051 2075.146,1342.877 2065.568,1342.877 
							2065.568,1357.051 2051.396,1357.051 2051.396,1366.629 2065.568,1366.629 2065.568,1380.802 2075.146,1380.802 
							2075.146,1366.629 2089.319,1366.629 						"/>
					</g>
				</g>
			</g>
		</g>
		<g>
			<path style="fill:#233862;" d="M2352.35,1435.564l-21.892-2.175h-0.026l-11.543-1.142c-4.033-0.397-7.297-3.424-8.013-7.403
				l-2.653-14.595c-0.054-0.237-0.08-0.45-0.054-0.688v-0.027c-0.134-3.078,2.68-5.572,5.838-4.935l34.098,6.925
				c2.176,0.451,3.9,2.07,4.483,4.192l4.008,14.807C2357.338,1433.23,2355.135,1435.857,2352.35,1435.564z"/>
		</g>
		<g>
			<path style="fill:#98BAF4;" d="M2232.956,1318.474l22.948,56.521h-39.376c0,0-8.077-1.352-9.112-17.858
				c-1.105-17.622-1.104-48.033-1.104-48.033l17.283-0.084C2230.183,1310.016,2231.215,1313.633,2232.956,1318.474z"/>
		</g>
		<g>
			<path style="fill:#233862;" d="M2244.225,1345.973c0,0,1.992,22.844-9.285,29.101h21.068L2244.225,1345.973z"/>
		</g>
		<g>
			<path style="fill:#233862;" d="M2247.319,1361.261c0,0-4.757-3.386-5.165-6.192v15.977h6.225L2247.319,1361.261z"/>
		</g>
		<g>
			<path style="fill:#233862;" d="M2242.15,1355.059v17.619c0,1.565-0.372,3.077-1.035,4.404c-1.619,3.238-4.988,5.466-8.836,5.466
				h-3.158c-5.413,0-9.871-4.431-9.871-9.87v-17.619c0-1.858,0.531-3.582,1.434-5.069c0-0.025,0-0.025,0-0.025
				c1.751-2.865,4.883-4.776,8.438-4.776h3.158C2237.719,1345.188,2242.15,1349.646,2242.15,1355.059z"/>
		</g>
		<g>
			<path style="fill:#233862;" d="M2187.063,1476.854c0,2.468,0.342,4.855,1.074,7.164h-160.396v-24.067h165.669
				C2189.408,1464.887,2187.063,1470.67,2187.063,1476.854z"/>
		</g>
		<g>
			<path style="fill:#233862;" d="M2113.2,1476.854c0,2.468,0.342,4.855,1.074,7.164h-160.396v-24.067h165.668
				C2115.544,1464.887,2113.2,1470.67,2113.2,1476.854z"/>
		</g>
		<g>
			<path style="fill:#172944;" d="M2029.969,1484.033h-57.303c-1.211-5.173-4.855-42.003,27.257-42.004
				C2029.105,1442.028,2031.252,1475.633,2029.969,1484.033z"/>
		</g>
		<g>
			<g>
				<path style="fill:#233862;" d="M1990.604,1476.005c0,13.37,6.896,28.112,6.896,28.112s10.248,0,11.672,0
					c10.257,0,18.57-12.586,18.57-28.112s-19.988-28.112-30.242-28.112C1987.243,1447.893,1990.604,1460.479,1990.604,1476.005z"/>
			</g>
			<g>
				<path style="fill:#2B478B;" d="M1978.93,1476.005c0,15.526,8.313,28.112,18.57,28.112c10.254,0,18.568-12.586,18.568-28.112
					s-8.314-28.112-18.568-28.112C1987.243,1447.893,1978.93,1460.479,1978.93,1476.005z"/>
			</g>
			<g>
				<ellipse style="fill:#AFCDFB;" cx="1997.733" cy="1476.005" rx="13.987" ry="21.176"/>
			</g>
		</g>
	</g>
	<g>
		<g>
			<path style="fill:#233862;" d="M1277.437,822.864c0,0-11.358-24.141-9.073-36.873c2.286-12.732,1.764-29.627,18.741-36.157
				c16.977-6.528,18.478-0.244,36.929-2.203c17.882-1.9,24.269,20.741,25.963,30.362c3.577,20.322-2.544,33.055-7.931,39.911
				c-4.657,5.927-6.774,8.896-6.774,8.896L1277.437,822.864z"/>
		</g>
		<g>
			<path style="fill:#233862;" d="M1230.261,1505.045c0,0,0-11.908,1.697-15.867c1.697-3.96,7.92-20.08,7.92-20.08h24.322
				c0,0,4.525,14.706,4.809,19.515c0.282,4.808,0,16.433,0,16.433H1230.261z"/>
		</g>
		<g>
			<path style="fill:#233862;" d="M1384.696,1505.045c0,0,0-11.908-1.697-15.867c-1.697-3.96-7.919-20.08-7.919-20.08h-24.323
				c0,0-4.525,14.706-4.808,19.515c-0.283,4.808,0,16.433,0,16.433H1384.696z"/>
		</g>
		<g>
			<path style="fill:#6BB7BF;" d="M1233.311,1092.664c0,0,4.255,129.951-2.107,204.097c-6.364,74.146,0.045,177.335,0.045,177.335
				s20.351,11.221,42.412,0c0,0,24.194-143.244,24.04-177.335c-0.162-36.305,26.333-198.432,26.333-198.432L1233.311,1092.664z"/>
		</g>
		<g>
			<path style="fill:#6BB7BF;" d="M1383.816,1474.092c0,0-20.346,11.225-42.406,0c0,0-24.191-143.242-24.038-177.333
				c0.068-15.333-4.615-53.115-10.055-91.636c-7.44-52.7-16.282-106.79-16.282-106.79l94.241-5.89c0,0-7.772,130.175-1.408,204.315
				C1390.231,1370.908,1383.816,1474.092,1383.816,1474.092z"/>
		</g>
		<g>
			<path style="fill:#AEC3FF;" d="M1251.615,881.358c0,0-35.059,4.164-42.755,35.66c-7.696,31.498-37.97,111.537-7.696,129.625
				c0,0,32.068-42.97,44.254-77.604C1257.604,934.407,1251.615,881.358,1251.615,881.358z"/>
		</g>
		<g>
			<path style="fill:#AEC3FF;" d="M1370.803,898.17c0,0,35.274-4.44,42.972,27.058c7.695,31.497,32.304,101.832,2.03,119.92
				c0,0-34.228-41.474-46.413-76.107C1357.205,934.407,1370.803,898.17,1370.803,898.17z"/>
		</g>
		<g>
			<path style="fill:#FFB27D;" d="M1287.251,836.694c0,0-0.857,26.516-4.251,38.394l-26.86,18.737l101.111,15.131l-24.113-33.317
				c0,0-7.281-35.552-3.463-48.703C1333.493,813.785,1287.251,836.694,1287.251,836.694z"/>
		</g>
		<g>
			<path style="fill:#ED985F;" d="M1287.104,840.356c0.001-0.008,7.995,19.248,23.056,18.824
				c15.061-0.425,18.488-17.455,18.488-17.455L1287.104,840.356z"/>
		</g>
		<g>
			<path style="fill:#FFB27D;" d="M1308.434,851.741c-10.912-0.192-30.997-14.723-30.997-32.718v-28.079
				c0-6.57,4.582-11.947,10.181-11.947h41.634c5.6,0,10.182,5.377,10.182,11.947v26.49
				C1339.433,836.304,1320.949,851.962,1308.434,851.741z"/>
		</g>
		<g>
			<path style="fill:#ABDDDA;" d="M1386.683,1150.544c-78.078,13.468-161.788,2.564-161.788,2.564l7.773-157.785
				c-0.206-2.284-0.359-4.631-0.423-7.029c-0.09-3.155-0.026-6.889,0.167-11.045c1.564-33.106,11.57-92.689,19.201-95.895
				c0,0,11.339-4.208,31.388-6.273c0,0.397,11.635,17.406,25.437,19.305c8.581-3.387,15.315-6.286,24.705-18.753
				c5.502,0.641,11.288,1.437,17.432,2.604c0.449,0.077,0.911,0.167,1.373,0.257c6.734,1.32,13.904,3.078,21.575,5.541
				c0,0,9.915,3.848,7.722,72.974L1386.683,1150.544z"/>
		</g>
		<g>
			<path style="fill:#FFFFFF;" d="M1299.741,833.654c0,0,3.398,4.599,9.334,4.434c5.937-0.164,8.728-4.434,8.728-4.434
				S1307.787,832.013,1299.741,833.654z"/>
		</g>
		<g>
			<path style="fill:#AEC3FF;" d="M1224.895,1029.567l-4.361,234.946c0,0,35.198,9.102,65.461,11.025l7.835-287.211l-10.774-97.212
				l-9.794-16.034c0,0-32.369,2.531-51.746,18.318c-13.222,10.774-19.33,47.506-19.33,47.506l30.47,32.008L1224.895,1029.567z"/>
		</g>
		<g>
			<path style="fill:#AEC3FF;" d="M1391.498,1029.567l4.363,234.946c0,0-35.201,9.102-65.462,11.025l-6.366-278.645l9.305-105.777
				l9.794-16.034c0,0,32.275,2.649,51.746,18.318c20.889,16.814,25.083,58.195,25.083,58.195l-36.224,21.318L1391.498,1029.567z"/>
		</g>
		<g>
			<path style="fill:#FFB27D;" d="M1201.164,1046.644c35.428,9.541,55.362-15.112,138.267-49.198l-2.513-13.227
				c0,0-95.316,1.107-112.023,10.154C1203.179,1006.134,1198.253,1045.86,1201.164,1046.644z"/>
		</g>
		<g>
			<path style="fill:#FFB27D;" d="M1270.31,975.176c0,0-35.799-2.032-36.182,16.229l33.097-1.501L1270.31,975.176z"/>
		</g>
		<g>
			<path style="fill:#ED985F;" d="M1365.059,984.494c0,0,26.789-6.794,31.278,11.148c4.489,17.94-38.518,0-38.518,0
				L1365.059,984.494z"/>
		</g>
		<g>
			<path style="fill:#ED985F;" d="M1297.899,1015.869c0,0-10.194-12.259-34.844-27.787l41.848,7.896l12.774,10.475l-5.822,2.958
				L1297.899,1015.869z"/>
		</g>
		<g>
			<polygon style="fill:#ED985F;" points="1340.219,985.843 1375.897,983.232 1373.409,993.424 			"/>
		</g>
		<g>
			<path style="fill:#ED985F;" d="M1234.128,991.405c0,0,24.48-4.186,24.053-4.507c-0.428-0.32-8.896-2.887-10.841-1.924
				C1245.396,985.937,1234.128,991.405,1234.128,991.405z"/>
		</g>
		<g>
			<path style="fill:#8C9DF4;" d="M1285.438,861.354c0,0-14.822,8.198-17.419,15.883c0,0-7.178,31.266,2.291,52.322l15.128-3.673
				l-7.77,9.55c0,0,4.007,43.439,16.161,52.893C1293.829,988.328,1284.347,872.991,1285.438,861.354z"/>
		</g>
		<g>
			<path style="fill:#8C9DF4;" d="M1330.666,861.354c0,0,14.822,8.198,17.418,15.883c0,0,9.468,29.062,0,50.118l-17.418-1.469
				l12.46,10.283c0,0-6.938,51.27-19.093,60.725C1324.033,996.894,1331.757,872.991,1330.666,861.354z"/>
		</g>
		<g>
			<path style="fill:#FFB27D;" d="M1415.805,1045.147c0,0-73.543-7.984-159.665-62.317l14.17-7.654
				c0,0,112.952,12.264,127.105,22.898C1419.625,1014.762,1432.459,1041.262,1415.805,1045.147z"/>
		</g>
		<g>
			<rect x="1246.157" y="939.108" style="fill:#EBF3FA;" width="24.152" height="10.606"/>
		</g>
		<g>
			<path style="fill:#233862;" d="M1294.481,778.997c0,0,11.101,10.076,25.302,8.086c14.202-1.989,13.869-7.93,15.854-5.421
				c1.986,2.509,2.201,22.905,4.96,24.244l1.469-26.909l-28.158-16.186l-40.4,4.652l3.93,39.422c0,0-0.748-14.446,5.374-18.609
				C1288.932,784.114,1294.481,778.997,1294.481,778.997z"/>
		</g>
	</g>
	<g>
		<g>
			<path style="fill:#233862;" d="M402.307,1504.166c0,0,0-11.908,1.697-15.867c1.697-3.96,7.919-20.081,7.919-20.081h24.323
				c0,0,4.525,14.707,4.809,19.516c0.282,4.808,0,16.433,0,16.433H402.307z"/>
		</g>
		<g>
			<path style="fill:#233862;" d="M556.742,1504.166c0,0,0-11.908-1.697-15.867c-1.697-3.96-7.92-20.081-7.92-20.081h-24.322
				c0,0-4.525,14.707-4.809,19.516c-0.282,4.808,0,16.433,0,16.433H556.742z"/>
		</g>
		<g>
			<path style="fill:#2B478B;" d="M405.355,1091.786c0,0,4.256,129.949-2.108,204.096c-6.363,74.146,0.046,177.335,0.046,177.335
				s20.352,11.221,42.411,0c0,0,24.194-143.243,24.041-177.335c-0.163-36.305,26.332-198.432,26.332-198.432L405.355,1091.786z"/>
		</g>
		<g>
			<path style="fill:#2B478B;" d="M555.862,1473.213c0,0-20.347,11.225-42.407,0c0,0-24.19-143.241-24.037-177.334
				c0.068-15.331-4.615-53.114-10.055-91.635c-7.441-52.699-16.282-106.791-16.282-106.791l94.241-5.889
				c0,0-7.773,130.175-1.408,204.314C562.276,1370.029,555.862,1473.213,555.862,1473.213z"/>
		</g>
		<g>
			<path style="fill:#233862;" d="M489.418,1295.879c0.068-15.331-4.615-53.114-10.055-91.635
				c5.642-23.012,19.388-45.157,19.388-45.157C516.146,1207.876,489.418,1295.879,489.418,1295.879z"/>
		</g>
		<g>
			<path style="fill:#FFB27D;" d="M423.66,880.479c0,0-35.058,4.163-42.754,35.661c-7.697,31.497-37.97,111.536-7.697,129.625
				c0,0,32.068-42.971,44.254-77.604C429.649,933.527,423.66,880.479,423.66,880.479z"/>
		</g>
		<g>
			<path style="fill:#FFB27D;" d="M542.849,897.291c0,0,35.274-4.44,42.971,27.058c7.695,31.497,32.305,101.831,2.031,119.92
				c0,0-34.228-41.474-46.414-76.106C529.251,933.527,542.849,897.291,542.849,897.291z"/>
		</g>
		<g>
			<path style="fill:#FFB27D;" d="M459.297,835.815c0,0-0.857,26.515-4.251,38.394l-26.86,18.737l101.111,15.132l-24.114-33.318
				c0,0-7.28-35.551-3.462-48.702C505.539,812.906,459.297,835.815,459.297,835.815z"/>
		</g>
		<g>
			<path style="fill:#ED985F;" d="M459.149,839.477c0.001-0.007,7.995,19.248,23.057,18.824
				c15.06-0.425,18.487-17.455,18.487-17.455L459.149,839.477z"/>
		</g>
		<g>
			<path style="fill:#2C3A64;" d="M450.16,823.894c0,0-4.863-24.28-8.258-31.634c-3.393-7.354-6.223-40.161,31.395-41.858
				c0,0,14.424,1.697,22.344-3.111c0,0,0,4.809-1.98,6.505c0,0,13.01-3.111,23.191,8.202c10.183,11.313-6.785,50.909-5.937,60.242
				L450.16,823.894z"/>
		</g>
		<g>
			<path style="fill:#FFB27D;" d="M480.479,850.862c-10.912-0.193-30.998-14.723-30.998-32.717v-28.08
				c0-6.57,4.582-11.946,10.183-11.946h41.632c5.601,0,10.183,5.376,10.183,11.946v26.49
				C511.478,835.425,492.995,851.084,480.479,850.862z"/>
		</g>
		<g>
			<path style="fill:#2C3A64;" d="M449.481,805.058c0,0,0.058-16.871,13.421-19.466c13.364-2.595,43.272,8.224,47.516-4.08
				c4.242-12.302-57.813-12.09-60.937-4.241C446.357,785.118,449.481,805.058,449.481,805.058z"/>
		</g>
		<g>
			<path style="fill:#ABDDDA;" d="M563.051,956.643l-4.322,193.022c-78.079,13.469-161.788,2.565-161.788,2.565l7.772-157.787
				c-0.204-2.283-0.358-4.63-0.423-7.028c-0.09-3.156-0.025-6.888,0.167-11.044c1.564-33.107,11.57-92.69,19.202-95.896
				c0,0,11.339-4.207,31.388-6.271c0,0.397,11.634,17.406,25.436,19.305c8.582-3.387,15.316-6.285,24.705-18.753
				c5.503,0.642,11.288,1.437,17.433,2.604c0.448,0.077,0.91,0.167,1.372,0.257c6.734,1.32,13.905,3.078,21.575,5.541
				c0,0,9.916,3.848,7.723,72.974L563.051,956.643z"/>
		</g>
		<g>
			<path style="fill:#FFFFFF;" d="M471.786,832.776c0,0,3.399,4.597,9.335,4.433c5.936-0.163,8.727-4.433,8.727-4.433
				S479.832,831.134,471.786,832.776z"/>
		</g>
		<g>
			<path style="fill:#FFB27D;" d="M373.21,1045.766c35.428,9.539,55.362-15.113,138.267-49.199l-2.514-13.227
				c0,0-95.316,1.108-112.022,10.155C375.224,1005.255,370.298,1044.981,373.21,1045.766z"/>
		</g>
		<g>
			<path style="fill:#ABDDDA;" d="M440.065,876.345v0.013l-8.351,24.718l-0.386,1.129l-0.115,0.334l-0.603,1.809l-10.352,30.631
				l-1.025,3.054l-11.391,33.734c-1.065,0.103-2.117,0.193-3.143,0.27c-29.644,2.078-44.318-6.76-44.318-6.76
				s6.093-39.443,20.844-61.891c9.646-14.688,31.85-21.73,46.05-24.846c0.462-0.09,0.897-0.193,1.334-0.283
				C435.409,876.832,440.065,876.345,440.065,876.345z"/>
		</g>
		<g>
			<path style="fill:#ABDDDA;" d="M535.239,880.479c0,0,26.209,3.847,43.525,24.439c17.316,20.592,21.806,56.508,21.806,56.508
				s-24.05,10.263-52.27,7.696C520.08,966.558,535.239,880.479,535.239,880.479z"/>
		</g>
		<g>
			<rect x="504.331" y="935.163" style="fill:#EBF3FA;" width="36.156" height="13.758"/>
		</g>
		<g>
			<g>
				<g>
					<g>
						<path style="fill:#2B478B;" d="M421.532,964.744l1.704-0.783c-0.105-0.227-10.365-23.056-3.458-47.743
							c2.007-7.173,8.192-12.632,15.391-13.585c6.782-0.898,12.931,2.394,16.87,9.028c9.353,15.752-7.668,53.881-7.841,54.264
							l1.709,0.773c0.044-0.098,4.444-9.898,7.589-21.574c4.266-15.831,4.318-27.412,0.156-34.42
							c-4.341-7.312-11.171-10.93-18.729-9.93c-7.933,1.049-14.745,7.053-16.951,14.939
							C410.874,941.081,421.425,964.512,421.532,964.744z"/>
					</g>
				</g>
				<g>
					<path style="fill:#2B478B;" d="M447.649,967.038c0.401-1.436-0.435-2.923-1.87-3.323c-1.435-0.402-2.923,0.436-3.324,1.87
						c-0.401,1.434,0.436,2.922,1.871,3.323C445.76,969.31,447.248,968.473,447.649,967.038z"/>
				</g>
				<g>
					<path style="fill:#2B478B;" d="M425.185,965.137c0.402-1.435-0.435-2.923-1.87-3.324c-1.435-0.4-2.923,0.437-3.323,1.87
						c-0.401,1.435,0.435,2.923,1.87,3.324C423.297,967.408,424.785,966.571,425.185,965.137z"/>
				</g>
			</g>
			<g>
				<path style="fill:#2B478B;" d="M438.566,902.381c-0.047,0-0.095-0.006-0.143-0.018c-0.346-0.078-0.562-0.421-0.483-0.766
					c0.04-0.181,4.173-18.089,13.355-28.462c0.234-0.266,0.64-0.289,0.905-0.055c0.265,0.234,0.29,0.641,0.055,0.904
					c-8.967,10.129-13.025,27.719-13.065,27.894C439.123,902.179,438.859,902.381,438.566,902.381z"/>
			</g>
		</g>
		<g>
			<path style="fill:#FFB27D;" d="M442.354,974.297c0,0-35.798-2.032-36.181,16.23l33.097-1.5L442.354,974.297z"/>
		</g>
		<g>
			<path style="fill:#ED985F;" d="M537.103,983.615c0,0,26.79-6.793,31.279,11.148c4.489,17.94-38.518,0-38.518,0L537.103,983.615z"
				/>
		</g>
		<g>
			<g>
				<path style="fill:#2B478B;" d="M524.907,904.668c-0.261,0-0.507-0.161-0.602-0.421c-6.209-17.013-16.947-29.5-17.055-29.624
					c-0.232-0.267-0.204-0.673,0.063-0.905c0.268-0.231,0.674-0.203,0.905,0.064c0.109,0.126,10.997,12.781,17.292,30.024
					c0.121,0.332-0.051,0.701-0.383,0.822C525.055,904.654,524.98,904.668,524.907,904.668z"/>
			</g>
			<g>
				<g>
					<path style="fill:#2B478B;" d="M531.174,905.411c0-3.46-2.807-6.266-6.267-6.266c-3.46,0-6.266,2.806-6.266,6.266
						c0,3.461,2.806,6.266,6.266,6.266C528.367,911.677,531.174,908.872,531.174,905.411z"/>
				</g>
				<g>
					<path style="fill:#6980E2;" d="M527.76,905.411c0-1.575-1.276-2.852-2.853-2.852c-1.575,0-2.852,1.277-2.852,2.852
						c0,1.576,1.277,2.854,2.852,2.854C526.483,908.265,527.76,906.987,527.76,905.411z"/>
				</g>
			</g>
		</g>
		<g>
			<path style="fill:#ED985F;" d="M469.945,1014.991c0,0-10.194-12.26-34.845-27.788l41.848,7.895l12.775,10.475l-5.821,2.958
				L469.945,1014.991z"/>
		</g>
		<g>
			<polygon style="fill:#ED985F;" points="512.264,984.964 547.943,982.354 545.454,992.545 			"/>
		</g>
		<g>
			<path style="fill:#FFB27D;" d="M587.851,1044.269c0,0-73.542-7.983-159.665-62.317l14.169-7.654
				c0,0,112.952,12.264,127.106,22.898C591.67,1013.883,604.505,1040.384,587.851,1044.269z"/>
		</g>
		<g>
			<path style="fill:#ED985F;" d="M406.174,990.526c0,0,24.48-4.187,24.053-4.507c-0.428-0.32-8.897-2.887-10.841-1.924
				C417.442,985.058,406.174,990.526,406.174,990.526z"/>
		</g>
	</g>
	<g>
		<g>
			<path style="fill:#FFB27D;" d="M1505.526,978.035c-1.236,2.337-9.469,89.974-3.001,101.506
				c6.467,11.531,36.996-21.98,37.753-78.542C1540.917,953.35,1505.526,978.035,1505.526,978.035z"/>
		</g>
		<g>
			
				<rect x="1455.591" y="1045.995" transform="matrix(-0.9552 -0.2961 0.2961 -0.9552 2646.4697 2581.8364)" style="fill:#233862;" width="126.294" height="89.051"/>
		</g>
		<g>
			<path style="fill:#2B478B;" d="M1502.669,1483.305l12.427,4.627c0,0,53.97-74.854,60.614-140.713
				c1.188-11.758,0.792-23.15-1.775-33.67c0,0,0.528-3.013,1.451-8.338c0.426-2.486,0.953-5.479,1.553-8.907
				c1.755-10.054,4.17-23.81,6.929-39.474c6.35-36.043,14.577-82.12,20.969-115.993l-3.348-1.075l-36.227-11.687l-7.487-23.778
				l-26.975-7.102c0,0-6.025,11.787-11.413,67.472c-0.993,7.305-1.896,15.358-2.576,24.094c-2.1,26.66-2.252,59.731,2.566,97.539
				c1.238,9.679,2.801,19.671,4.738,29.938c1.42,7.526,1.633,17.783,1.034,29.562
				C1522.432,1399.637,1502.669,1483.305,1502.669,1483.305z"/>
		</g>
		<g>
			<path style="fill:#233862;" d="M1516.811,1188.761l58.575,116.45c0.426-2.486,0.953-5.479,1.553-8.907
				c1.755-10.054,4.17-23.81,6.929-39.474c6.35-36.043,14.577-82.12,20.969-115.993l-3.348-1.075l-36.227-11.687l-7.487-23.778
				l-26.975-7.102c0,0-6.025,11.787-11.413,67.472C1518.394,1171.972,1517.49,1180.025,1516.811,1188.761z"/>
		</g>
		<g>
			<path style="fill:#2B478B;" d="M1542.579,1112.139l1.356-11.628c22.718,6.034,83.416-16.86,83.416-16.86
				s22.007,19.346,19.118,65.717c-1.411,22.634-3.986,118.813-6.678,147.274c-0.972,10.314-1.823,17.655-2.172,20.587
				c-0.008,0.014-0.008,0.021-0.008,0.028c-0.105,0.895,0.207,1.739,0.661,2.521c3.961,6.723,7.241,13.723,9.932,20.886
				c26.409,70.374-4.068,157.042-4.068,157.042l-7.908-3.188c0,0-17.343-96.45-31.435-139.06c-2.393-7.227-4.686-12.906-6.787-16.3
				c-6.128-9.89-11.813-26.047-16.975-45.265c-9.754-36.333-17.606-83.6-22.831-120.082
				C1557.48,1173.845,1542.579,1112.139,1542.579,1112.139z"/>
		</g>
		<g>
			<path style="fill:#233862;" d="M1598.158,1504.166h62.582c0,0,1.5-9.538-1.769-16.775c-3.133-6.942-8.038-10.099-6.863-18.5
				c-3.977,4.095-10.458,8.68-19.506,7.462c-1.108,1.798-7.156,11.417-10.859,14.077
				C1617.654,1493.368,1599.416,1492.321,1598.158,1504.166z"/>
		</g>
		<g>
			<path style="fill:#233862;" d="M1463.783,1504.166h62.583c0,0,2.34-9.981-1.769-16.775c-3.638-6.009-2.244-9.432,0.449-14.405
				c-2.834,1.161-6.502,2.217-10.54,1.985c-3.117-0.18-6.415-1.594-9.307-3.273c-2.693,3.07-14.227,16.143-17.831,18.732
				C1483.279,1493.368,1465.043,1492.321,1463.783,1504.166z"/>
		</g>
		<g>
			<path style="fill:#2C3A64;" d="M1610.817,790.866c0.491-1.683,6.433-19.639,34.532-13.545c0,0-14.111-1.833-18.003,3.59
				c0,0,11.211-5.081,18.202-0.766c6.99,4.316,8.084,18.754,7.021,23.142c-1.064,4.389-8.854,17.432-13.979,17.412
				c-1.941-0.008-4.013-0.661-5.841-1.471c0.776,2.327,1.474,4.855,2.052,7.627c5.342,25.631-11.766,45.03-20.553,40.185
				c-5.636-3.108-9.949,6.759-9.949,6.759l-46.624-62.309C1557.676,811.491,1590.49,772.376,1610.817,790.866z"/>
		</g>
		<g>
			<path style="fill:#FFB27D;" d="M1571.382,956.42c38.605,12.053,44.771-48.481,42.307-48.791
				c-4.156-3.714-9.684-18.042-9.513-39.627l-1.886,0.355l-31.609,6.132c0,0,0.674,9.951,0.665,19.309
				c-0.014,7.321-0.456,14.285-1.964,15.884c-2.456,0.341-3.933,0.574-3.933,0.574s-0.003,0.01-0.018,0.027
				C1564.964,910.933,1561.083,953.208,1571.382,956.42z"/>
		</g>
		<g>
			<path style="fill:#ED985F;" d="M1570.679,874.495c0,0,0.68,9.943,0.664,19.309c17.678-0.43,27.084-16.518,30.947-25.439
				L1570.679,874.495z"/>
		</g>
		<g>
			<path style="fill:#FFB27D;" d="M1564.741,883.339c0,0,41.817,0.854,41.948-25.195s5.616-43.483-21.077-45.13
				c-26.694-1.647-31.931,8.267-34.09,16.951C1549.363,838.649,1553.866,882.445,1564.741,883.339z"/>
		</g>
		<g>
			<path style="fill:#2C3A64;" d="M1552.823,815.485c6.495-7.81,11.374-6.07,14.102-3.704c22.907-12.478,37.563,6.16,37.563,6.16
				c2.724,18.702,16.161,29.463,16.161,29.463s-7.642,4.679-25.196,0.09c-5.361-1.401-10.14-5.234-14.195-9.877
				c7.065,11.947,16.711,20.574,16.711,20.574c-20.951-9.786-29.267-39.013-30.093-42.102c-2.563,2.282-7.614,7.242-9.168,12.118
				c-2.11,6.626-3.102,20.276-7.08,19.797C1551.627,848.005,1543.082,827.198,1552.823,815.485z"/>
		</g>
		<g>
			<path style="fill:#91CECF;" d="M1609.337,900.495c0,0,6.569,2.14,6.922,6.775c0,0-17.605,32.898-37.08,34.771L1609.337,900.495z"
				/>
		</g>
		<g>
			<path style="fill:#ABDDDA;" d="M1517.535,1056.99l-15.109,86.174c8.917,5.459,17.533,10.143,25.812,14.161
				c2.286-6.735,6.529-14.36,6.796-14.825c-1.207,4.433,1.838,14.238,3.752,19.637c77.066,33.204,123.594,7.692,123.594,7.692
				c-11.564-85.12-2.992-225.264-5.07-235.277c-3.951-19.025-41.044-27.277-41.044-27.277
				c-13.565,23.769-37.092,34.772-37.092,34.772c-8.849-8.736-11.151-32.15-11.151-32.15l-15.463,3.802
				c-9.996,2.458-19.258,7.374-26.667,14.516c-0.664,0.646-1.327,1.31-1.957,1.991c-7.642,8.176-27.53,60.914-27.53,60.914
				s4.171,14.489,11.842,21.785c3.924,3.729,9.03,7.261,15.094,10.961L1517.535,1056.99z"/>
		</g>
		<g>
			<path style="fill:#91CECF;" d="M1579.179,942.041c0,0-9.648-31.939-8.529-36.084c0,0-7.563,0.936-8.216,5.314
				C1562.434,911.271,1570.98,937.926,1579.179,942.041z"/>
		</g>
		<g>
			<path style="fill:#FFFFFF;" d="M1574.247,868.403c0,0-1.861,4.071-4.475,4.521c-2.613,0.45-6.722,0.435-7.646,0
				c-0.926-0.434-2.386-3.302-3.014-4.188c0,0,4.69-0.514,14.519-0.332H1574.247z"/>
		</g>
		<g>
			<path style="fill:#91CECF;" d="M1508.246,1012.904c4.063,3.578,9.03,7.261,15.094,10.961c0,0,11.581-43.311,8.132-46.329
				C1528.022,974.518,1521.684,1003.003,1508.246,1012.904z"/>
		</g>
		<g>
			<path style="fill:#FFB27D;" d="M1676.625,963.536c0,0,53.978,73.491,48.743,98.453c-4.169,19.882-58.791,65.579-58.791,65.579
				l-14.1-9.098c0,0,34.107-49.426,31.117-63.91c-2.327-11.268-36.151-53.972-36.151-53.972L1676.625,963.536z"/>
		</g>
		<g>
			<path style="fill:#ABDDDA;" d="M1640.579,916.415c0,0,29.937,16.077,55.708,67.116c0,0-15.204,20.229-45.476,30.047
				c-30.271,9.817-29.249-48.665-29.249-48.665L1640.579,916.415z"/>
		</g>
		<g>
			<polygon style="fill:#91CECF;" points="1577.662,973.87 1540.529,973.961 1540.287,1004.446 1556.579,1013.62 1576.817,1005.807 
							"/>
		</g>
		<g>
			<path style="fill:#FFB27D;" d="M1656.122,1119.391c0,0-15.233-5.799-23.75-3.527c-4.811,1.283-13.736,18.278-8.178,20.845
				c5.559,2.564,11.843-6.521,18.684-4.811c6.842,1.71,15.309,11.653,23.699-4.329L1656.122,1119.391z"/>
		</g>
		<g>
			<path style="fill:#FFB27D;" d="M1655.3,1117.467c0,0-5.853-2.646-8.497-4.489c-2.646-1.844-4.25,1.442,0,4.489
				c4.249,3.047,5.771,1.684,5.771,1.684L1655.3,1117.467z"/>
		</g>
		<g>
			<path style="fill:#FFB27D;" d="M1449.49,1115.604c0,0,17.273-8.201,20.789,0.998c3.516,9.198-2.556,16.915-8.342,15.102
				C1456.151,1129.893,1445.831,1123.73,1449.49,1115.604z"/>
		</g>
		<g>
			<g>
				<g>
					<g>
						<path style="fill:#2B478B;" d="M1623.139,1005.019l-1.352-1.301c0.174-0.182,17.386-18.352,19.002-43.937
							c0.471-7.433-3.569-14.627-10.051-17.898c-6.108-3.084-12.997-2.003-18.903,2.962c-14.023,11.789-10.522,53.398-10.485,53.816
							l-1.867,0.166c-0.01-0.107-0.934-10.811-0.055-22.87c1.192-16.352,4.961-27.304,11.199-32.548
							c6.509-5.473,14.148-6.637,20.956-3.201c7.144,3.606,11.597,11.518,11.08,19.691
							C1641.001,986.19,1623.315,1004.834,1623.139,1005.019z"/>
					</g>
				</g>
				<g>
					<path style="fill:#2B478B;" d="M1597.724,998.574c0.095-1.485,1.376-2.615,2.862-2.521c1.486,0.094,2.615,1.374,2.521,2.861
						c-0.094,1.486-1.375,2.615-2.861,2.522S1597.631,1000.062,1597.724,998.574z"/>
				</g>
				<g>
					<path style="fill:#2B478B;" d="M1619.56,1004.185c0.093-1.486,1.374-2.615,2.861-2.52c1.487,0.093,2.615,1.374,2.521,2.861
						c-0.093,1.485-1.374,2.615-2.861,2.521C1620.595,1006.953,1619.465,1005.672,1619.56,1004.185z"/>
				</g>
			</g>
			<g>
				<path style="fill:#2B478B;" d="M1627.827,940.56c-0.025,0-0.049-0.001-0.073-0.003c-0.353-0.041-0.605-0.359-0.564-0.71
					c0.02-0.18,1.983-18.13-3.142-30.642c-0.134-0.328,0.023-0.702,0.352-0.836c0.326-0.136,0.701,0.022,0.836,0.351
					c5.251,12.818,3.249,31.088,3.228,31.271C1628.426,940.319,1628.148,940.56,1627.827,940.56z"/>
			</g>
		</g>
		<g>
			<g>
				<path style="fill:#2B478B;" d="M1549.148,945.383c-0.008,0-0.016,0-0.023,0c-0.354-0.014-0.63-0.312-0.617-0.666
					c0.697-18.342,7.176-33.729,7.242-33.882c0.14-0.326,0.518-0.477,0.841-0.339c0.326,0.139,0.478,0.516,0.339,0.841
					c-0.064,0.152-6.451,15.332-7.14,33.43C1549.776,945.111,1549.492,945.383,1549.148,945.383z"/>
			</g>
			<g>
				<g>
					<path style="fill:#2B478B;" d="M1543.611,947.983c-1.063-3.294,0.747-6.824,4.04-7.886c3.294-1.063,6.824,0.746,7.886,4.04
						c1.063,3.294-0.746,6.824-4.039,7.886C1548.205,953.086,1544.674,951.277,1543.611,947.983z"/>
				</g>
				<g>
					<path style="fill:#6980E2;" d="M1546.859,946.935c-0.484-1.499,0.34-3.107,1.84-3.591c1.499-0.483,3.107,0.34,3.591,1.841
						c0.484,1.499-0.34,3.107-1.84,3.591C1548.951,949.26,1547.343,948.435,1546.859,946.935z"/>
				</g>
			</g>
		</g>
	</g>
	<g>
		<g>
			<g>
				<path style="fill:#233862;" d="M701.22,1504.28h40.428c-0.302-2.12-1.333-8.57-3.226-14.512
					c-0.655-2.069-1.421-4.079-2.289-5.825c-3.932-7.848-28.906-2.855-28.906-2.855s-2.318,1.987-4.13,9.578
					C702.294,1494.009,701.587,1498.448,701.22,1504.28z"/>
			</g>
			<g>
				<path style="fill:#AEC3FF;" d="M775.435,884.191c0,0,32.215,5.655,39.498,24.671c7.282,19.015,48.429,326.16,48.429,326.16
					s-20.375,16.145-64.11,10.348C755.516,1239.574,775.435,884.191,775.435,884.191z"/>
			</g>
			<g>
				<path style="fill:#233862;" d="M823.387,1492.787c0.11,5.5,0.802,10.706,2.798,12.76h79.965
					c-1.017-2.894-3.896-7.245-12.104-8.577c-9.328-1.51-23.869-6.001-32.359-14.976c-3.025-3.188-5.277-6.95-6.265-11.347
					c-3.763-16.749-31.106,5.132-31.106,5.132S823.21,1484.601,823.387,1492.787z"/>
			</g>
			<g>
				<path style="fill:#59A9AD;" d="M857.822,1480.811c-8.937,2.851-26.015,11.554-36.866,7.459
					c-7.011-2.642-46.205-116.018-48.747-165.607c-0.188-3.605-0.896-8.637-2.006-14.771c-2.322-12.798-6.382-30.385-11.059-49.792
					c-12.543-51.998-29.507-117.047-29.14-137.839c0.568-32.271,96.17-6.764,96.17-6.764s6.576,26.471,7.886,64.797
					c2.597,76.074,9.734,204.574,29.148,293.813C864.031,1475.894,861.529,1479.633,857.822,1480.811z"/>
			</g>
			<g>
				<path style="fill:#6BB7BF;" d="M791.471,1120.373l-50.539,366.29c0,0-22.194,5.353-39.457,1.07
					c0,0-14.795-194.81-13.563-241.907c1.232-47.097-10.619-126.022,2.705-134.727
					C703.941,1102.396,791.471,1120.373,791.471,1120.373z"/>
			</g>
			<g>
				<path style="fill:#FFFFFF;" d="M684.228,900.971c0,0,53.112-34.344,91.207-16.779c6.07,2.798,12.994,10.607,17.952,16.07
					c13.771,15.174,40.676,256.203,40.676,256.203s-76.379,25.868-149.835-8.779V900.971z"/>
			</g>
			<g>
				<path style="fill:#AEC3FF;" d="M778.457,883.32c0,0,53.768,22.035,61.05,38.966c7.283,16.932,30.951,120.903,30.951,133.095
					c0,12.192-41.211,2.727-47.845-16.938c-5.51-16.33-24.092-66.492-33.891-98.22L778.457,883.32z"/>
			</g>
			<g>
				<g>
					<path style="fill:#FFB27D;" d="M767.291,900.11c-11.738,2.302-28.981-0.151-41.606-8.473c5.7-13.612,8.036-24.361,8.868-31.317
						c0.048-0.37,0.084-0.728,0.121-1.073c0.376-3.605,0.321-6.052,0.145-7.175h30.346c0,0,8.297,3.794,8.297,6.415
						c0,1.402,0.012,2.744,0.036,4.024c0.061,3.49,0.2,6.536,0.383,9.152c0.577,8.516,1.554,12.527,1.554,12.527
						S779.143,897.785,767.291,900.11z"/>
				</g>
				<g>
					<path style="fill:#E2915A;" d="M773.882,871.664c-22.99,4.442-36.337-8.12-39.328-11.344c-0.425-0.461-0.643-0.734-0.643-0.734
						c0.242-0.121,0.498-0.23,0.765-0.339c8.558-3.466,27.978-0.711,38.824,3.265C773.56,866.002,773.699,869.048,773.882,871.664z"
						/>
				</g>
				<g>
					<path style="fill:#FFB27D;" d="M727.044,847.085c4.108,22.11,32.638,21.384,44.967,19.995c3.47-0.386,5.653-0.829,5.653-0.829
						c3.912-1.045,6.095-7.207,7.109-15.279c2.013-15.975-0.531-39.423-3.229-45.42c-4.061-9.025-11.712-18.785-40.441-11.743
						C712.367,800.856,721.772,818.755,727.044,847.085z"/>
				</g>
				<g>
					<path style="fill:#233862;" d="M782.614,793.218c-3.926-5.438-12.253-12.08-19.813-16.171
						c-16.247-8.789-37.039,0.276-37.126,0.315c-23.468,10.317-29.596,28.273-17.154,56.24
						c13.156,29.575,25.685,26.247,25.685,26.247s-2.659-1.655-2.419-10.872c0.013-0.523,0.034-0.961,0.059-1.338
						c0.121-1.89-0.545-3.784-1.958-5.044c-2.914-2.602-4.336-10.469-1.893-12.66c2.944-2.642,7.082,0.567,8.404,3.036
						c1.154,1.743,3.224,2.354,5.149,1.137c7.305-4.617,2.56-13.852,9.54-19.502c6.979-5.65,21.141-0.907,31.611-5.41
						C796.403,804.091,785.574,797.313,782.614,793.218z"/>
				</g>
			</g>
			<g>
				<path style="fill:#AEC3FF;" d="M785.885,1257.589c-4.625,1.189-9.201,2.167-13.753,2.919c-4.023,0.687-8.029,1.195-12.041,1.536
					c-22.728,1.979-45.561-1.22-72.247-8.874c-6.009-1.723-12.217-3.677-18.662-5.844c-0.687-0.231,1.754-70.797,4.569-143.584
					c0.285-7.514,0.582-15.058,0.874-22.547c0.128-3.175,0.249-6.33,0.377-9.479c2.555-64.376,5.085-122.512,5.619-125.643
					c1.221-7.083,2.361-13.122,3.605-18.354c3.635-15.251,8.15-23.615,17.995-30.807c0.958-0.729,8.83-4.697,15.773-8.15
					c5.754-2.859,10.864-5.354,10.864-5.354c0.005,0,0.005,0,0.005,0c2.289,1.122,5.038,6.366,7.915,13.729
					c5.286,13.57,10.991,34.351,14.961,49.869c0.011,0.043,0.018,0.067,0.018,0.079c0,0.007,0,0.007,0,0.007
					c2.555,10.02,4.388,17.824,4.91,20.065c0.886,3.781,2.057,11.1,3.435,21.023c1.868,13.504,4.102,31.832,6.463,52.632
					c0.243,2.136,0.485,4.303,0.727,6.488c0.28,2.494,0.565,5.019,0.845,7.567c0.091,0.819,0.182,1.639,0.267,2.458
					c0.91,8.236,1.827,16.739,2.737,25.381c0.759,7.144,11.593,12.309,12.339,19.573c0.431,4.267,1.331,43.629,2.49,56.193
					C786.803,1167.442,786.212,1253.371,785.885,1257.589z"/>
			</g>
			<g>
				<path style="fill:#9DB0F4;" d="M707.498,972.024c-0.034,0.146-1.841,65.097,47.016,72.987
					c48.856,7.89,16.396,9.975,16.396,9.975s-91.925-3.906-93.442-6.334C675.95,1046.225,707.498,972.024,707.498,972.024z"/>
			</g>
			<g>
				<path style="fill:#9DB0F4;" d="M748.777,1072.893c0,0-0.916,0.649-2.676,1.784c-0.03,0.013-0.061,0.037-0.091,0.055
					c-7.454,4.759-29.575,17.729-61.784,26.425c-3.381,0.917-6.877,1.784-10.476,2.586c0.285-7.514,0.582-15.058,0.874-22.547
					c-4.254-0.334-8.326-0.874-12.108-1.675c0.128-0.989,0.262-1.979,0.389-2.968c4.097-1.682,8.169-3.302,12.097-4.837
					c3.198-1.251,6.293-2.44,9.225-3.545c13.23-5.025,23.038-8.43,23.038-8.43l39.164,12.404L748.777,1072.893z"/>
			</g>
			<g>
				<path style="fill:#AEC3FF;" d="M759.144,1071.807c0,0-5.031,1.256-13.042,2.87c-0.03,0-0.056,0.007-0.086,0.019
					c-14.771,2.968-39.606,7.131-61.789,6.906c-3.272-0.035-6.488-0.163-9.602-0.406c-4.254-0.334-8.326-0.874-12.108-1.675
					c-8.108-1.712-14.899-4.606-19.342-9.135c-32.997-33.61,18.007-154.241,28.73-165.979c12.521-13.703,35.372-18.51,47.989-20.16
					c0.528-0.066,1.031-0.134,1.524-0.194c4.436-0.528,7.283-0.638,7.441-0.644c0.005,0,0.005,0,0.005,0s-0.989,3.18-2.646,8.575
					c-0.644,2.088-1.39,4.51-2.209,7.211c-7.75,25.381-22.705,75.263-29.296,103.394c-2.416,10.293-3.708,17.674-3.12,19.876
					c2.573,9.608,29.235,14.548,46.126,16.732c7.046,0.91,12.393,1.342,13.589,1.434c0.085,0,0.164,0.005,0.249,0.018l0.978,4.005
					l2.336,9.608l2.3,9.438L759.144,1071.807z"/>
			</g>
			<g>
				<polygon style="fill:#233862;" points="851.178,1129.629 737.849,1124.854 760.842,983.621 874.169,988.396 				"/>
			</g>
			<g>
				<path style="fill:#FFB27D;" d="M751.558,1040.648c0,0,22.061-1.538,23.167,3.604c2.58,11.987-18.966,21.829-25.945,21.156
					C741.801,1064.735,746.481,1039.848,751.558,1040.648z"/>
			</g>
			<g>
				<path style="fill:#FFB27D;" d="M867.974,1017.075c0,0-21.106-6.599-23.372-1.852c-5.282,11.064,13.402,25.624,20.348,26.584
					C871.895,1042.766,873.099,1017.472,867.974,1017.075z"/>
			</g>
			<g>
				<path style="fill:#9DB0F4;" d="M731.154,876.316c0,0-9.281,4.424-13.935,11.099c0,0,34.691,60.233,34.537,59.669
					C751.602,946.519,740.029,884.03,731.154,876.316z"/>
			</g>
			<g>
				<path style="fill:#9DB0F4;" d="M774.362,877.165c3.056,1.153,8.915,7.156,10.236,10.475l4.124,52.584
					c0,0-8.806-38.59-13.287-56.032C774.296,879.757,774.505,878.409,774.362,877.165z"/>
			</g>
			<g>
				<path style="fill:#C65447;" d="M798.409,985.204c0,0,0.896-3.919,6.056-3.464c5.157,0.455,34.139,1.881,34.139,1.881
					s5.588-0.092,5.069,3.489L798.409,985.204z"/>
			</g>
			<g>
				<path style="fill:#FFFFFF;" d="M765.166,852.072c0,0,3.762,3.43,9.832,2.368c3.599-0.63,5.613-5.311,5.613-5.311
					S773.695,847.885,765.166,852.072z"/>
			</g>
		</g>
		<g>
			<rect x="698.392" y="925.966" style="fill:#EBF3FA;" width="29.339" height="13.156"/>
		</g>
	</g>
	<g>
		<path style="fill:#82B378;" d="M313.913,1501.604c-2.906-4.565-11.653-16.415-23.304-14.848
			c-12.693,1.709,14.02,10.078,22.197,14.882c-1.815,0.025-3.377-0.12-4.524-0.528c-5.467-1.948-14.831,1.788-17.825,3.1h52.051
			c-0.36-1.245-1.298-3.278-3.722-4.76c-0.855-0.522-2.573-0.596-4.79-0.427c3.095-3.648,5.244-15.304-3.372-12.305
			c-6.294,2.19-6.277,9.313-5.659,13.525c-1.339,0.21-2.697,0.422-4.039,0.615c-2.591-13.208-11.757-51.915-30.336-52.947
			c-18.833-1.047,15.972,40.143,27.56,53.316C316.667,1501.408,315.236,1501.543,313.913,1501.604z"/>
	</g>
	<g>
		<path style="fill:#2E3552;" d="M2670.311,1511H99.519c-1.606,0-2.919-1.313-2.919-2.919v-0.995c0-1.606,1.313-2.92,2.919-2.92
			h2570.791c1.605,0,2.92,1.313,2.92,2.92v0.995C2673.23,1509.687,2671.916,1511,2670.311,1511z"/>
	</g>
</g>
</svg>
