<?xml version="1.0" encoding="utf-8"?>
<!-- Generator: Adobe Illustrator 27.5.0, SVG Export Plug-In . SVG Version: 6.00 Build 0)  -->
<svg version="1.1" xmlns="http://www.w3.org/2000/svg" xmlns:xlink="http://www.w3.org/1999/xlink" x="0px" y="0px"
	 viewBox="0 0 500 500" style="enable-background:new 0 0 500 500;" xml:space="preserve">
<g id="BACKGROUND">
	<g>
		<rect style="fill:#FFFFFF;" width="500" height="500"/>
		<g>
			<rect x="35.676" y="105.541" style="fill:#F3F3F3;" width="428.648" height="152.361"/>
			<g>
				<rect x="142.349" y="105.541" style="fill:#FFFFFF;" width="9.191" height="152.361"/>
				<rect x="344.996" y="105.541" style="fill:#FFFFFF;" width="9.191" height="152.361"/>
			</g>
		</g>
		<g>
			<g>
				<path style="fill:#E5F0FF;" d="M83.298,78.829h94.38c3.923,0,7.104-3.181,7.104-7.104v-5.519c0-1.383-1.121-2.504-2.504-2.504
					H78.697c-1.383,0-2.504,1.121-2.504,2.504v5.519C76.194,75.649,79.374,78.829,83.298,78.829z"/>
				<g>
					<g>
						<path style="fill:#99ADCC;" d="M177.506,48.062h-9.923c-1.036,0-1.876,0.84-1.876,1.876v14.353h13.676V49.938
							C179.382,48.902,178.542,48.062,177.506,48.062z"/>
					</g>
					<g>
						<path style="fill:#99ADCC;" d="M93.393,48.062H83.47c-1.036,0-1.876,0.84-1.876,1.876v14.353h13.676V49.938
							C95.269,48.902,94.429,48.062,93.393,48.062z"/>
					</g>
				</g>
				<g>
					<path style="fill:#B0C0D9;" d="M188.299,54.832H72.677c-4.807,0-8.703,3.896-8.703,8.703v6.761
						c0,1.694,1.373,3.067,3.067,3.067h126.893c1.694,0,3.067-1.373,3.067-3.067v-6.761
						C197.002,58.728,193.105,54.832,188.299,54.832z"/>
				</g>
				<line style="fill:none;stroke:#B0C0D9;stroke-width:1.5;stroke-miterlimit:10;" x1="88.431" y1="48.062" x2="88.431" y2="0"/>
				<line style="fill:none;stroke:#B0C0D9;stroke-width:1.5;stroke-miterlimit:10;" x1="172.544" y1="48.062" x2="172.544" y2="0"/>
			</g>
			<g>
				<path style="fill:#E5F0FF;" d="M322.322,78.829h94.38c3.923,0,7.104-3.181,7.104-7.104v-5.519c0-1.383-1.121-2.504-2.504-2.504
					h-103.58c-1.383,0-2.504,1.121-2.504,2.504v5.519C315.218,75.649,318.399,78.829,322.322,78.829z"/>
				<g>
					<g>
						<path style="fill:#99ADCC;" d="M416.53,48.062h-9.923c-1.036,0-1.876,0.84-1.876,1.876v14.353h13.676V49.938
							C418.406,48.902,417.566,48.062,416.53,48.062z"/>
					</g>
					<g>
						<path style="fill:#99ADCC;" d="M332.418,48.062h-9.924c-1.036,0-1.876,0.84-1.876,1.876v14.353h13.676V49.938
							C334.294,48.902,333.454,48.062,332.418,48.062z"/>
					</g>
				</g>
				<g>
					<path style="fill:#B0C0D9;" d="M427.323,54.832H311.701c-4.806,0-8.703,3.896-8.703,8.703v6.761
						c0,1.694,1.373,3.067,3.067,3.067h126.893c1.694,0,3.067-1.373,3.067-3.067v-6.761
						C436.026,58.728,432.13,54.832,427.323,54.832z"/>
				</g>
				<line style="fill:none;stroke:#B0C0D9;stroke-width:1.5;stroke-miterlimit:10;" x1="327.456" y1="48.062" x2="327.456" y2="0"/>
				<line style="fill:none;stroke:#B0C0D9;stroke-width:1.5;stroke-miterlimit:10;" x1="411.569" y1="48.062" x2="411.569" y2="0"/>
			</g>
		</g>
	</g>
</g>
<g id="OBJECTS">
	<path style="fill:#E2E2E2;" d="M464.324,451.379c0-3.445-95.934-6.237-214.274-6.237s-214.274,2.793-214.274,6.237
		c0,3.445,95.934,6.237,214.274,6.237S464.324,454.824,464.324,451.379z"/>
	<g>
		<g>
			<path style="fill:#529665;" d="M465.96,264.222c-63.057,42.192-41.2,77.752-41.2,77.752c0.085,0.002-0.296,1.08-0.362,1.334
				c-6.508,24.845-6.536,83.533-6.54,84.129l0.772,0.001c0.004-0.594,1.025-57.625,7.502-82.349c0.089-0.34,0.586-1.858,0.676-2.196
				C463.306,342.234,465.96,264.222,465.96,264.222z"/>
			<path style="fill:#96CF90;" d="M413.637,279.314c0.007-0.256,0.018-0.504,0.025-0.759c-0.005,0.001-0.009,0.002-0.013,0.003
				c0,0-18.274-30.637,14.841-79.744c0,0,9.898,73.974-12.314,80.101c-0.01,0.328-0.024,0.648-0.032,0.978
				c-0.641,24.451,2.477,120.348,2.527,121.319l-0.771,0.047C417.85,400.287,412.995,303.799,413.637,279.314z"/>
			<path style="fill:#40746E;" d="M407.211,355.758c-0.039-0.108-0.081-0.213-0.12-0.321c0.005,0,0.01,0,0.015,0
				c0,0,13.531-19.835-29.689-43.909c0,0,3.672,44.107,27.869,44.874c0.083,0.224,0.168,0.443,0.25,0.668
				c5.017,13.89,7.973,46.091,7.993,46.424l0.771-0.058C414.281,403.102,412.275,369.779,407.211,355.758z"/>
			<path style="fill:#5FAD75;" d="M409.245,321.127c-0.054-0.254-0.11-0.499-0.164-0.752c0.014,0.004,0.027,0.01,0.04,0.014
				c0,0,13.271-33.393-29.949-74.583c0,0-7.082,63.363,28.006,75.405c0.089,0.413,0.265,1.054,0.353,1.471
				c5.032,23.84,7.733,79.872,7.753,80.443l0.772-0.031C416.036,402.52,414.293,345.045,409.245,321.127z"/>
		</g>
		<rect x="402.733" y="383.807" style="fill:#313858;" width="24.372" height="67.342"/>
	</g>
	<g>
		<g>
			<g>
				<g>
					<path style="fill:#BD8368;" d="M342.58,424.909c0,0,8.54-2.018,11.92-3.418c0,0,3.858,13.29,4.06,16.323
						c0.202,3.034,0.302,4.961,0.302,4.961l-15.069-0.091c0,0,0.558-3.062,0.533-5.82
						C344.302,434.107,342.58,424.909,342.58,424.909z"/>
					<g>
						<path style="fill:#313858;" d="M361.211,448.994c-0.606,1.755-5.623,1.488-17.143,2.073
							c-11.521,0.586-18.436,0.463-18.229-1.384c0.098-0.83,0.187-1.607,0.58-2.311c0.505-0.871,4.498-4.483,6.845-6.147
							c2.356-1.652,6.67-7.325,7.896-8.384c1.959-1.688,6.542,0.066,10.633,0.913c4.1,0.837,3.732,0.036,5.491-0.743
							c0.698-0.308,2.671,1.565,3.26,6.255C361.043,443.239,361.834,447.188,361.211,448.994z"/>
					</g>
				</g>
				<path style="fill:#428FB0;" d="M323.795,268.976c-0.88,0.703,7.553,60.26,8.626,84.454c0.296,6.68,0.598,11.549,0.864,13.112
					c1.229,7.224,5.681,58.625,5.681,58.625s7.208,2.947,18.362,0.489l2.448-58.663c0,0,3.813-58.66,3.919-67.488
					c0.224-18.758-7.74-33.608-7.74-33.608L323.795,268.976z"/>
				<g>
					<path style="fill:#BD8368;" d="M301.268,424.909c0,0,8.94-2.018,12.598-3.418c0,0,1.221,13.29,0.821,16.323
						c-0.4,3.034-0.682,4.961-0.682,4.961l-15.051-0.091c0,0,1.165-3.062,1.688-5.82
						C301.165,434.107,301.268,424.909,301.268,424.909z"/>
					<g>
						<path style="fill:#313858;" d="M316.607,448.935c-0.673,1.669-7.405,1.546-19.042,2.132
							c-11.637,0.586-18.528,0.463-17.954-1.384c0.263-0.83,0.506-1.607,1.038-2.311c0.677-0.871,5.388-4.483,8.065-6.147
							c2.684-1.652,8.124-7.325,9.56-8.384c2.294-1.688,6.529,0.066,10.452,0.913c3.934,0.837,3.999-0.165,5.961-0.815
							c0.755-0.25,1.502,2.873,2.018,8.35C317.083,445.312,317.556,446.58,316.607,448.935z"/>
					</g>
				</g>
				<path style="fill:#428FB0;" d="M301.994,265.896c-0.988,0.721-1.615,34.913-3.623,67.465c-0.416,6.745-0.881,31.707-0.925,33.27
					c-0.204,7.224-0.562,57.861-0.562,57.861s9.194,2.478,20.09,0.676l4.404-52.65c0,0,12.244-64.185,14.101-73.013
					c3.946-18.758-0.722-30.106-0.722-30.106L301.994,265.896z"/>
				<path style="fill:#E59178;" d="M307.94,162.315c0.888,5.618,3.544,9.486,5.275,10.563c2.525,1.572,10.54,2.918,10.54,2.918
					s-23.072,36.467-34.092,38.137c-11.02,1.671-0.645-29.233-0.645-29.233s4.129-3.584,4.618-6.76
					c0.489-3.176-0.07-10.087-0.07-10.087l10.074-18.681L307.94,162.315z"/>
				<path style="fill:#D4806A;" d="M293.833,174.974c1.196-0.557,2.346-1.152,3.424-1.757c2.781-1.56,5.492-3.396,7.362-6.031
					c1.365-1.924,2.215-4.081,2.849-6.316l-3.826-11.697l-10.074,18.681C293.567,167.854,293.878,171.701,293.833,174.974z"/>
				<path style="fill:#E59178;" d="M281.504,134.536c-1.664,1.52-4.436,4.602-4.251,6.494c0.185,1.892,0.45,7.479,1.263,10.637
					c0.813,3.158,1.82,8.181,2.991,11.829c1.171,3.647,6.215,9.389,7.227,9.904c1.013,0.514,5.509,0.39,7.219-0.863
					c1.71-1.253,10.673-10.684,8.908-18.625c0,0,3.822,1.066,5.397-6.621c0.411-2.005-7.09-13.564-8.239-15.629
					c-2.791-5.019-13.365,3.718-16.371,3.817C282.643,135.579,281.504,134.536,281.504,134.536z"/>
				<g>
					<path style="fill:#6B2F21;" d="M308.141,131.235c0,0-5.541-6.925-14.202-6.961c-3.198-0.013-10.661,1.596-10.661,1.596
						c-5.19,0.179-8.364,0.083-9.143,8.958c-0.387,4.411,3.117,6.201,3.117,6.201s0.636-2.718,2.954-2.014
						c2.318,0.704,4.583,0.662,8.113,0.592c5.085-0.101,10.229-4.364,11.647-3.515c3.978,2.384-0.595,6.99,3.128,9.876
						c0.336,0.261,0.529,0.604,0.638,0.968c0.516-1.101,1.473-2.178,2.781-2.088c1.837,0.126,2.938,4.57,1.43,6.201
						c-1.508,1.631-3.084,2.861-3.084,2.861s0.387,2.269,1.083,3.936c0.696,1.668,1.997,4.468,1.997,4.468s2.01-10.783,4.375-15.444
						C314.681,142.21,314.694,133.416,308.141,131.235z"/>
				</g>
				<path style="fill:#E59178;" d="M237.3,258.97c1.732-0.31,3.783-0.724,4.494-1.068c13.636-6.602,20.3-8.997,23.512-10.187
					c0,0,0.781-4.648,1.802-7.462c1.681-4.633,4.613-14.391,7.035-22.667c5.993,2.27,11.884,4.812,17.816,7.245
					c-3.461,8.031-7.203,22.657-12.129,31.521c-0.692,1.245-5.147,5.668-12.2,6.967c-9.634,1.773-23.787,2.79-30.447,3.674
					c-0.032,0.038-0.063,0.072-0.095,0.11c-0.018,0.004-0.04,0.011-0.059,0.015C237.126,264.402,237.211,261.686,237.3,258.97z"/>
				<g>
					<path style="fill:#4EA9D0;" d="M285.663,234.11c1.852,0.058,2.449-2.514,4.468-2.607c3.3-10.87,6.226-17.086,6.226-17.086
						s-2.758-26.046-9.319-28.96c0,0-5.584,5.713-9.669,11.394c-4.635,6.445-7.905,23.215-7.623,34.004
						C275.682,232.536,279.517,233.918,285.663,234.11z"/>
				</g>
				<g>
					<path style="fill:#273C54;" d="M269.992,223.059c-0.365,3.327-0.63,5.988-0.855,8.919c3.421,1.295,12.508,4.276,20.435,2.967
						c0.892-3.451,2.271-8.388,2.271-8.388C283.54,227.41,277.037,225.555,269.992,223.059z"/>
				</g>
				<path style="fill:#4EA9D0;" d="M288.199,219.844c0,0,6.529,24.942,7.115,29.168c0.409,2.951,3.588,33.789,3.588,33.789
					s11.701,3.032,26.856,1.7c21.745-1.91,34.154-8.844,34.154-8.844s-2.324-12.749-6.188-25.81
					c-1.437-4.858-4.693-24.475-5.585-30.004c-3.366-20.844-1.728-15.341-2.451-18.968c-1.433-7.19-7.601-18.222-12.151-21.914
					c-5.061-4.107-20.177-5.964-20.177-5.964s0.183,5.087-1.279,10.563c-1.577,5.912-5.814,9.977-7.606,10.125
					c-9.351,0.775-11.529-13.872-11.529-13.872l-5.909,5.643C287.038,185.458,283.135,215.904,288.199,219.844z"/>
				
					<rect x="316.033" y="206.63" transform="matrix(0.9625 -0.2713 0.2713 0.9625 -44.4623 95.326)" style="fill:#FFFFFF;" width="13.037" height="3.695"/>
			</g>
		</g>
		<g>
			<g>
				<path style="fill:#EAAD96;" d="M325.758,271.834c-0.774-0.335-1.474-0.743-2.178-1.214
					c-17.667-11.82-52.375-31.867-58.739-34.93c-5.145-2.476-9.376,1.646-14.059,5.004c-4.683,3.358-30.242,22.271-30.242,22.271
					c-0.016,7.34,8.424,44.192,8.424,44.192c13.109-14.477,39.152-45.097,39.152-45.097s15.574,7.628,27.94,11.447
					c13.301,4.107,21.708,7.592,26.684,9.968C323.544,279.545,324.558,275.659,325.758,271.834z"/>
			</g>
			<path style="fill:#252B42;" d="M186.679,288.862c0,0,38.109-31.282,47.755-36.207c0,0,7.078,9.634,13.448,16.754
				c3.971,4.438,7.808,9.05,11.92,13.392c0,0-24.36,22.038-30.518,29.876c-7.796,9.923-22.552,18.529-35.308,9.507
				c0,0-0.192-7.614,1.055-19.548C196.277,290.703,186.679,288.862,186.679,288.862z"/>
		</g>
		<path style="fill:#EAAD96;" d="M375.786,303.441c0,0-1.73-0.53-3.12-0.022c-1.39,0.509-3.258,0.467-5.386,1.262
			c-2.128,0.794-10.407,4.849-15.002,5.399c-4.437,0.531-9.206,0.245-10.211,0.266c-1.204-0.038-8.978-1.157-10.199-1.263
			c-15.833-2.362-36.077-5.485-43.045-6.687c-11.568-1.996-23.069-4.501-29.553-4.823c-6.484-0.322-29.499-1.41-29.499-1.41
			c-12.207,0.097-23.599-2.443-23.599-2.443l2.699,33.88c0,0,36.821-7.728,54.228-5.278c9.221,1.298,30.216,1.419,47.887-0.757
			c3.46-0.426,6.892-0.727,10.194-0.937c1.004-0.03,1.917-0.081,2.727-0.154c2.555-0.127,13.549,0.485,13.994,0.552
			c3.522,0.526,6.549,1.623,8.461,3.416c2.309,2.166,4.418,2.032,7.217,0.228c2.799-1.805,6.298-6.798,11.931-10.691
			c5.633-3.893,10.863-6.953,11.89-8.687C378.426,303.558,376.989,302.555,375.786,303.441z"/>
		<path style="fill:#313858;" d="M186.908,285.884c0,0,44.301,8.462,60.13,10.559c0,0,6.148,18.038-4.425,32.494
			c0,0-42.556-3.659-55.934-3.515c-19.261,0.207-22.029,0.151-28.281-10.539L186.908,285.884z"/>
		<path style="fill:#EAAD96;" d="M147.775,251.93l-19.129-11.703c0,0-7.39-2.996-9.836-4.036c-4.751-2.02-9.008-11.313-8.306-13.622
			l-23.536-2.683c0,0,3.769,2.168,7.411,10.693c0.597,1.397,5.271,12.253,5.63,13.831c0.504,2.215,5.163,14.024,5.163,14.024
			c19.232,15.103,34.396,41.201,41.944,38.379C154.665,293.991,147.775,251.93,147.775,251.93z"/>
		<path style="fill:#D69E89;" d="M94.38,230.579c0.138,0.324,0.501,1.168,0.973,2.274c2.05,0.556,4.132,0.985,6.252,1.242
			c3.758,0.455,7.514,0.687,11.291,0.302c0.984-0.1,1.961-0.246,2.931-0.425c-3.382-3.529-5.872-9.596-5.322-11.402l-23.536-2.683
			C86.969,219.887,90.738,222.055,94.38,230.579z"/>
		<path style="fill:#CC272F;" d="M98.974,256.504c0,0-1.18-16.28,12.016-17.295c11.951-0.919,23.9,17.028,19.806,28.884
			c-2.732,7.913-7.363,7.594-7.363,7.594s14.897,21.013,21.644,27.991c9.015,9.324,14.108,16.397,14.108,16.397
			c6.513-3.614,15.73-4.395,26.479-15.899c8.291-8.873,4.669-18.291,4.669-18.291s-7.437-1.374-14.688-8.837
			c-7.181-7.392-19.343-24.169-28.033-30.362c-5.373-3.829-18.605-8.404-21.354-8.559c-8.018-0.452-12.796-2.918-19.943,0.518
			C99.168,242.078,95.151,252.199,98.974,256.504z"/>
		<path style="fill:#EAAD96;" d="M107.938,193.365c2.063,4.408,4.325,8.26,5.204,11.419c0.879,3.16,5.637,5.996,7.857,7.158
			c2.22,1.162-1.557,4.709-1.557,4.709s-0.223,4.161,1.203,10.675c0.635,2.9-4.817,4.001-6.944,4.566
			c-3.042,0.809-10.045,1.866-16.202,1.866c-2.248,0-9.35-7.5-9.35-7.5l-9.824-15.344L90.09,194.85L107.938,193.365z"/>
		<path style="fill:#40201D;" d="M110.511,193.517c0,0-6.033-4.289-11.318-5.402c-8.267-1.742-13.881,0.935-19.649,5
			c-4.36,3.073-8.652,8.794-6.422,12.85c0,0-4.172,7.84,2.431,16.7c5.194,6.97,17.422,7.55,20.171,11.093l1.288-9.439
			c0,0-2.118-0.924-3.872-1.761c-1.214-0.579-2.874-2.278-3.529-3.741c-2.094-4.674,3.163-8.266,6.443-4.643
			c0.574,0.634,1.056,2.662,1.433,3.123c1.777,2.176,2.491,1.743,2.491,1.743s-1.051-3.665-1.426-5.307
			c-0.252-1.104-0.662-3.183,0.522-7.144c0.769-2.575-1.249-5.077-0.537-5.763C99.715,199.692,107.221,197.644,110.511,193.517z"/>
		<path style="fill:#EAAD96;" d="M357.281,268.271c0.963-1.944-0.535-2.998-1.712-1.982c0,0-1.773-0.523-3.156,0.085
			c-1.383,0.608-3.274,0.627-5.391,1.575c-2.117,0.948-5.857,3.009-10.48,3.774c-4.623,0.765-10.637-0.929-12.857-1.289
			c-0.003,0-0.007-0.002-0.01-0.002c-0.965-0.481-2.291-1.15-3.884-1.962c-0.303-0.206-1.613-0.919-3.53-1.945
			c-2.198,3.65-4.511,7.231-6.849,10.796c1.318,0.608,2.585,1.192,3.77,1.74l-0.03,0.096c1.412,0.632,2.633,1.146,3.725,1.614
			c1.823,0.846,3.073,1.43,3.483,1.633c0.659,0.366,1.249,0.746,1.772,1.181c1.91,1.588,2.225,5.123,4.656,7.427
			c2.431,2.304,4.704,1.367,7.455-0.716c2.751-2.083,5.876-7.575,11.4-12.055C351.164,273.765,356.318,270.215,357.281,268.271z"/>
		<path style="fill:none;stroke:#A2A5AD;stroke-width:4.906;stroke-miterlimit:10;" d="M122.354,451.287V355.81
			c0-5.874-3.613-10.637-8.069-10.637H80.713c-4.456,0-8.069,4.762-8.069,10.637v95.477"/>
		<path style="fill:none;stroke:#A2A5AD;stroke-width:4.906;stroke-miterlimit:10;" d="M377.063,451.379v-95.477
			c0-5.874-3.613-10.637-8.069-10.637h-33.572c-4.457,0-8.069,4.762-8.069,10.637v95.477"/>
		<g>
			<path style="fill:#BEC1CB;" d="M372.18,322.82H55.35v13.638c0,4.111,3.332,7.443,7.443,7.443H372.18V322.82z"/>
			<path style="fill:#A2A5AD;" d="M399.77,322.82h-28.446v21.081h24.637c2.104,0,3.81-1.706,3.81-3.81V322.82z"/>
		</g>
		<path style="fill:#BEC1CB;" d="M89.183,237.905H66.235c-6.011,0-10.884,4.873-10.884,10.884v75.042h110.878l-31.694-34.104
			l-36.735-47.589C95.738,239.469,92.556,237.905,89.183,237.905z"/>
		<path style="fill:#A2A5AD;" d="M97.317,249.689c34.347,57.467,51.202,74.142,51.202,74.142h17.708l-31.694-34.104l-36.735-47.589
			c-2.061-2.67-5.243-4.233-8.616-4.233h-2.012C90.946,241.413,94.605,245.151,97.317,249.689z"/>
		<g>
			<path style="fill:#E59178;" d="M352.795,206.034c-0.966-5.329-1.886-9.648-3.032-13.025c-5.42,4.284-9.575,6.751-15.936,9.424
				c2.95,8.438,7.713,31.263,7.713,31.263c-0.164,0.179-2.06,1.943-2.06,1.943c-7.948,6.843-12.67,19.472-17.621,25.691
				c-0.946,0.891-1.949,1.652-2.632,1.657c-1.662,0.013-3.214-0.236-4.749,0.4c-1.376,0.569-1.091,0.622-1.091,0.622
				s1.766,1.303,1.943,2.267c0.306,1.669-1.648,3.266-3.767,5.267c-0.419,0.335-6.086,3.806-6.877,4.195
				c-0.791,0.389-0.977,1.411,0.052,1.961s1.625,0.44,1.625,0.44s0.054,1.056,1.296,1.483c1.243,0.427,2.22,0.329,2.22,0.329
				s-0.315,1.33,1.094,1.479c1.409,0.149,1.972,0.075,1.972,0.075s0.242,1.152,1.263,1.293c1.021,0.14,5.618-3.016,6.144-3.513
				c1.07-0.979,2.037-2.059,2.828-3.208c0.678-0.986,2.02-3.877,3.419-5.801c0.658-0.905,1.39-1.795,2.104-2.61
				c3.957-3.743,9.219-8.754,15.364-14.678c1.338-1.29,7.468-7.801,8.467-8.897c-0.007-0.011-0.016-0.02-0.023-0.031
				c1.448-1.484,3.843-4.441,4.515-5.427C359.329,235.25,355.439,220.615,352.795,206.034z"/>
			<path style="fill:#4EA9D0;" d="M354.861,209.785c-0.307-2.499-1.574-7.79-2.3-10.209c-3.445-11.483-7.734-15.889-11.845-18.841
				c-4.916-3.531-11.737-3.665-11.737-3.665l-0.079,18.061c1.618,4.112,5.124,13.535,6.751,18.87
				C341.859,214.751,349.048,211.825,354.861,209.785z"/>
			<path style="fill:#273C54;" d="M335.26,213.911c0,0,13.481-1.76,19.52-5.433l1.582,8.289c0,0-10.292,5.618-19.354,4.406
				L335.26,213.911z"/>
		</g>
		<path style="fill:#E59178;" d="M248.848,242.828c-0.198,0.107-2.189,2.332-2.684,3.754c-0.495,1.422-0.247,3.894-1.298,4.636
			c-1.051,0.742-1.545,0-1.545,0s0.556,2.472-1.174,2.967c-1.731,0.494-2.349-0.742-2.349-0.742s-0.185,1.36-1.669,1.174
			c-1.484-0.185-1.738-0.905-1.738-0.905s-0.483,0.725-1.41,0.231c-0.927-0.495-1.229-0.775-0.796-3.232
			c0.433-2.457,0.963-2.96,1.897-3.49c0.703-0.398,1.367-0.145,1.367-0.145s-0.033-2.195,1.351-2.666
			c0.839-0.285,1.645-0.034,1.645-0.034s0.378-1.38,1.964-1.83c1.242-0.352,1.906,0.163,1.906,0.163s0.181-0.826,1.788-1.135
			C247.709,241.266,248.848,242.828,248.848,242.828z"/>
		<path style="fill:#EAAD96;" d="M100.011,254.26c0.012,7.837,11.451,22.644,15.975,30.2c4.523,7.556,14.515,20.04,22.601,24.603
			c5.659,3.193,21.624,7.267,31.724,10.579c4.331,1.42,8.141,3.372,9.473,3.512c4.44,0.463,10.703-0.332,14.108-0.332
			c3.405,0,8.383,0,10.872,0s0.252-2.199-1.791-2.746c-2.043-0.547-3.859-3.952-7.264-4.86c-3.405-0.908-7.722-1.127-11.188-1.127
			c-2.951,0-5.611-1.371-8.79-2.506c-3.178-1.135-16.333-10.595-21.1-13.092c-4.767-2.497-12.821-7.023-14.373-9.963
			c-1.815-3.439-9.918-19.845-13.246-29.333c-3.328-9.487-7.547-16.771-14.832-16.84C104.895,242.283,99.999,246.58,100.011,254.26z
			"/>
	</g>
</g>
</svg>
