<?xml version="1.0" encoding="utf-8"?>
<!-- Generator: Adobe Illustrator 27.5.0, SVG Export Plug-In . SVG Version: 6.00 Build 0)  -->
<svg version="1.1" id="_x2018_ëîé_x5F_1" xmlns="http://www.w3.org/2000/svg" xmlns:xlink="http://www.w3.org/1999/xlink"
	 x="0px" y="0px" viewBox="0 0 3200 2000" style="enable-background:new 0 0 3200 2000;" xml:space="preserve">
<rect style="fill:#FFFFFF;" width="3200" height="2000"/>
<g>
	<path style="fill:#EBF3FA;" d="M2876.791,1800.404l-397.29,6.879l-268.192,1.848l-13.521-0.05l-514.563-1.923l-1416.015-4.407
		c0,0-140.794-162.007-98.045-404.219c32.461-183.894,58.281-226.393,379.386-420c275.609-166.202,95.911-622.334,611.647-709.805
		c7.416-1.261,14.982-2.447,22.698-3.533c58.817-8.427,126.212-12.298,203.695-10.737c286.109,5.756,464.359-54.872,635.743-63.187
		c7.578-0.374,15.145-0.637,22.698-0.787c110.431-2.247,219.851,19.514,355.465,97.271
		c339.258,194.506,21.174,397.015,547.023,744.751C3137.006,1157.819,3119.564,1674.292,2876.791,1800.404z"/>
	<g>
		<g>
			
				<rect x="1463.041" y="774.597" transform="matrix(-1 -1.224647e-16 1.224647e-16 -1 2949.8096 2571.1704)" style="fill:#FFFFFF;" width="23.728" height="1021.976"/>
			<g>
				<path style="fill:#FFFFFF;" d="M1369.845,945.154h2.354c20.247,0,36.813-16.566,36.813-36.813v-97.417h-75.979v97.417
					C1333.032,928.588,1349.598,945.154,1369.845,945.154z"/>
				<path style="fill:#AEC3FF;" d="M1369.719,938.474h0.965c17.282,0,31.421-14.14,31.421-31.421v-21.318h-63.807v21.318
					C1338.299,924.334,1352.438,938.474,1369.719,938.474z"/>
			</g>
			
				<rect x="1316.8" y="774.597" transform="matrix(-1 -1.224647e-16 1.224647e-16 -1 2803.5684 1567.5161)" style="fill:#FFFFFF;" width="169.969" height="18.322"/>
			
				<rect x="1363.654" y="792.919" transform="matrix(-1 -1.224647e-16 1.224647e-16 -1 2740.4043 1607.9741)" style="fill:#FFFFFF;" width="13.096" height="22.135"/>
		</g>
		<rect x="1410.81" y="1776.128" style="fill:#FFFFFF;" width="133.578" height="25.807"/>
	</g>
	<polygon style="opacity:0.2;fill:#8EADFF;" points="984.694,1040.741 984.694,1200.079 1107.755,1365.054 1107.755,1800.303 
		931.179,1800.303 931.179,1040.741 	"/>
	<g>
		<g>
			<path style="fill:#FFB27D;" d="M1919.792,1167.297c6.283,7.06,27.907-6.128,30.815-8.658c0.168-0.254,0.319-0.373,0.319-0.373
				l-3.78-16.495c0,0-23.202-1.299-28.892-0.312C1890.14,1146.335,1912.883,1159.75,1919.792,1167.297z"/>
			<path style="fill:#2B478B;" d="M1947.149,1141.773l0.47,16.646c0,0,1.085,0.131,2.986,0.213
				c5.996,0.309,20.554,1.231,37.119,1.44c15.789,0.334,33.53,0.115,47.563-1.552c8.097-0.964,14.971-2.425,19.527-4.526
				c18.999-8.689,52.033-38.32,74.923-69.167c0.646-0.745,1.147-1.508,1.65-2.27c7.727-10.585,14.218-21.258,18.436-31.225
				c2.324-5.465,3.945-10.712,4.729-15.624c1.426-8.463,1.36-15.883,0.357-22.448c-1.283-8.655-4.281-15.726-7.603-21.203
				c-0.439-0.875-0.878-1.75-1.609-2.515c-5.571-8.492-11.537-12.496-11.537-12.496c-2.458-1.383-5.309-0.903-8.44,1.116
				c-0.353,0.212-0.696,0.461-1.053,0.708c-0.014,0.01-0.028,0.033-0.053,0.042c-0.451,0.332-0.905,0.689-1.363,1.081l-0.016,0.131
				c-1.182,0.971-2.409,2.142-3.684,3.488c-0.014,0.01-0.026,0.021-0.028,0.033c-2.341,2.477-4.802,5.555-7.265,9.154
				c-0.146,0.115-0.306,0.229-0.322,0.372c-0.814,1.136-1.655,2.401-2.645,3.794c-0.305,0.229-0.484,0.619-0.649,0.877
				c-1.862,2.933-3.741,5.997-5.637,9.191c-20.961,34.235-45.243,86.983-61.939,101.572c-3.889,3.391-14.653,7.952-27.571,12.619
				l-0.002,0.012c-0.239,0.08-0.492,0.17-0.744,0.262c-0.025,0.009-0.051,0.018-0.076,0.026
				c-10.768,3.872-22.954,7.792-33.865,11.151C1961.316,1137.982,1947.149,1141.773,1947.149,1141.773z"/>
			<path style="fill:#2B478B;" d="M2012.827,1121.765c0.57,1.895,3.106,10.796,7.807,20.103c3.811,7.555,9.076,15.369,15.875,19.885
				c5.877-2.017,16.363-4.762,20.921-6.863c16.479-7.54,41.566-31.51,62.867-57.88c3.251-4.023,6.411-8.095,9.441-12.181
				c0.646-0.745,1.147-1.508,1.65-2.27c7.727-10.585,14.218-21.258,18.436-31.225c0,0,3.637-63.43-7.225-80.456
				c0,0-14.462,1.394-23.047,12.738c-0.014,0.01-0.026,0.021-0.028,0.033c-2.341,2.477-4.802,5.555-7.265,9.154
				c-0.146,0.115-0.306,0.229-0.322,0.372c-0.814,1.136-1.655,2.401-2.645,3.794c-0.305,0.229-0.484,0.619-0.649,0.877
				c-1.862,2.933-3.741,5.997-5.637,9.191c-20.961,34.235-45.243,86.983-61.939,101.572c-3.889,3.391-14.653,7.952-27.571,12.619
				l-0.002,0.012C2013.185,1121.602,2012.958,1121.78,2012.827,1121.765z"/>
			<path style="fill:#233862;" d="M2019.777,1148.356c3.81,7.555,9.933,8.88,16.731,13.396c5.877-2.017,16.363-4.762,20.921-6.863
				c16.479-7.54,41.566-31.51,62.867-57.88c0.406-9.044-52.034,31.367-58.995,38.997
				C2056.053,1141.761,2031.6,1148.589,2019.777,1148.356z"/>
			<path style="fill:#2B478B;" d="M2012.674,1121.528c0.019,0.147,0.069,0.227,0.153,0.236c-0.035-0.113-0.061-0.201-0.077-0.263
				C2012.668,1121.274,2012.645,1121.271,2012.674,1121.528z"/>
		</g>
		<path style="fill:#2C3A64;" d="M2234.668,793.205c0.635-2.369,33.813,45.757,34.709,49.618
			c8.288,35.709-15.044,63.404-27.497,56.9c-7.987-4.172-13.714,9.775-13.714,9.775l-67.232-85.743
			C2160.934,823.756,2205.63,767.967,2234.668,793.205z"/>
		<path style="fill:#B5453C;" d="M2098.404,1778.721l17.988,6.697c0,0,78.131-108.362,87.75-203.703
			c1.719-17.021,1.146-33.513-2.57-48.742c0,0,0.764-4.361,2.1-12.071c0.617-3.599,1.381-7.931,2.248-12.895
			c2.54-14.554,6.035-34.468,10.03-57.143c9.192-52.179,21.104-118.882,30.355-167.918l-4.847-1.557l-52.443-16.918l-10.838-34.423
			l-39.05-10.28c0,0-8.724,17.064-16.521,97.675c-1.438,10.574-2.746,22.234-3.73,34.879c-3.04,38.595-3.26,86.471,3.716,141.205
			c1.792,14.01,4.054,28.476,6.858,43.338c2.056,10.896,2.364,25.744,1.498,42.794
			C2127.013,1657.597,2098.404,1778.721,2098.404,1778.721z"/>
		<path style="fill:#93312C;" d="M2118.876,1352.322l84.796,168.579c0.617-3.599,1.381-7.931,2.248-12.895
			c2.54-14.554,6.035-34.468,10.03-57.143c9.192-52.179,21.104-118.882,30.355-167.918l-4.847-1.557l-52.443-16.918l-10.838-34.423
			l-39.05-10.28c0,0-8.724,17.064-16.521,97.675C2121.168,1328.018,2119.86,1339.678,2118.876,1352.322z"/>
		<path style="fill:#B5453C;" d="M2156.181,1241.402l1.962-16.834c32.888,8.735,120.758-24.408,120.758-24.408
			s31.859,28.005,27.676,95.136c-2.041,32.766-5.771,171.999-9.666,213.2c-1.408,14.933-2.641,25.56-3.145,29.804
			c-0.01,0.021-0.01,0.031-0.01,0.041c-0.154,1.295,0.298,2.519,0.955,3.648c5.735,9.732,10.483,19.866,14.378,30.235
			c38.231,101.878-5.889,227.342-5.889,227.342l-11.448-4.614c0,0-25.107-139.626-45.508-201.31
			c-3.464-10.462-6.783-18.684-9.825-23.597c-8.869-14.315-17.101-37.707-24.572-65.527
			c-14.121-52.598-25.487-121.022-33.052-173.837C2177.752,1330.73,2156.181,1241.402,2156.181,1241.402z"/>
		<path style="fill:#FFB27D;" d="M2184.703,1026.188c54.419,15.649,61.135-69.278,57.676-69.634
			c-5.936-5.066-14.126-24.948-14.568-55.167l-2.629,0.558l-44.051,9.582c0,0,1.258,13.908,1.541,27.005
			c0.212,10.249-0.187,20.011-2.247,22.296c-3.427,0.556-5.485,0.928-5.485,0.928s-0.004,0.015-0.024,0.04
			C2174.281,962.721,2170.186,1022.019,2184.703,1026.188z"/>
		<path style="fill:#ED985F;" d="M2181.128,911.536c0,0,1.266,13.897,1.54,27.005c24.73-1.159,37.389-23.975,42.514-36.586
			L2181.128,911.536z"/>
		<path style="fill:#FFB27D;" d="M2173.097,924.103c0,0,58.56-0.127,57.92-36.594c-0.641-36.467,6.487-61.044-30.93-62.505
			s-44.435,12.582-47.182,24.806C2150.158,862.034,2157.847,923.196,2173.097,924.103z"/>
		<g>
			<path style="fill:#FFFFFF;" d="M2206.9,887.386l-0.837-0.927c19.296-17.406,19.688-17.406,20.005-17.406v0.624l0.257,0.564
				C2225.452,870.752,2214.23,880.775,2206.9,887.386z"/>
		</g>
		<g>
			
				<rect x="2203.693" y="892.475" transform="matrix(0.5969 -0.8023 0.8023 0.5969 180.0285 2144.5137)" style="fill:#FFFFFF;" width="40.906" height="1.25"/>
		</g>
		<path style="fill:#2C3A64;" d="M2154.268,829.502c8.845-11.137,15.729-8.858,19.621-5.632
			c31.671-18.188,52.774,7.436,52.774,7.436c4.404,26.092,16.468,14.286,16.468,14.286s-4.762,31.081-29.47,25.178
			c-26.999-6.451-37.05-36.6-38.306-40.899c-3.515,3.276-10.428,10.379-12.448,17.252c-2.745,9.341-3.701,28.482-9.285,27.935
			C2153.622,875.058,2141.003,846.205,2154.268,829.502z"/>
		<path style="fill:#233862;" d="M2236.638,1808.92h90.599c0,0,2.172-13.809-2.561-24.283c-4.535-10.053-11.637-14.621-9.937-26.783
			c-5.757,5.928-15.14,12.565-28.237,10.803c-1.604,2.603-10.359,16.526-15.72,20.378
			C2264.861,1793.288,2238.461,1791.772,2236.638,1808.92z"/>
		<path style="fill:#233862;" d="M2042.11,1808.92h90.599c0,0,3.387-14.45-2.561-24.283c-5.266-8.7-3.248-13.657,0.651-20.854
			c-4.104,1.68-9.413,3.208-15.259,2.874c-4.514-0.26-9.287-2.309-13.474-4.739c-3.899,4.445-20.596,23.368-25.813,27.117
			C2070.334,1793.288,2043.934,1791.772,2042.11,1808.92z"/>
		<path style="fill:#2B478B;" d="M2142.6,970.878l-30.086,197.783l-18.428,121.106c12.65,7.358,24.858,13.642,36.576,19
			c3.096-9.798,9.061-20.994,9.061-20.994c-1.575,6.229,3.005,19.891,5.853,27.404c108.934,44.03,173.251,6.851,173.251,6.851
			c5.605-44.672,6.793-137.358,0.951-216.63c-1.223-16.489-2.738-32.394-4.588-47.167c-4.201-33.592-7.678-51.424-10.9-65.366
			c-6.132-26.508-58.318-36.89-58.318-36.89c-18.229,33.699-50.813,49.844-50.813,49.844c-12.66-11.942-16.634-44.643-16.634-44.643
			L2142.6,970.878z"/>
		<path style="fill:#233862;" d="M2236.063,946.706c0,0,9.263,2.789,9.902,9.267c0,0-23.602,46.605-50.803,49.842L2236.063,946.706z
			"/>
		<path style="fill:#233862;" d="M2195.162,1005.815c0,0-14.516-44.401-13.08-50.239c0,0-10.557,1.548-11.332,7.697
			C2170.75,963.274,2183.556,1000.313,2195.162,1005.815z"/>
		<path style="fill:#233862;" d="M2263.589,1002.988c-1.216,2.185-116.852,117.952-124.867,144.445
			c-8.015,26.493,32.92,19.861,34.31,16.484C2174.422,1160.541,2263.589,1002.988,2263.589,1002.988z"/>
		<path style="fill:#233862;" d="M2112.514,1168.661l-18.428,121.106c129.106-7.133,194.33-261.174,194.33-261.174l-105.818,117.98
			l-69.22,21.324C2113.378,1167.898,2113.071,1168.161,2112.514,1168.661z"/>
		<path style="fill:#ABDDDA;" d="M2154.268,829.502c0,0-16.438-13.874-6.067-26.359c10.37-12.485,39.308-33.71,78.317-20.393
			c39.009,13.317,63.51,74.495,44.6,100.713c-18.908,26.219-36.146,16.811-36.146,16.811S2219.539,816.46,2154.268,829.502z"/>
		<path style="fill:#FFFFFF;" d="M2155.329,886.361c0,0,20.108,4.257,53.188-1.921c0,0-2.226,17.778,5.145,25.06
			C2213.661,909.499,2149.903,957.198,2155.329,886.361z"/>
		<rect x="1899.074" y="1148.564" style="fill:#B5453C;" width="208.307" height="13.188"/>
		<path style="fill:#FFB27D;" d="M2056.157,1167.227l0.755,18.046c0,0,6.084,0.273,15.771,0.683c2.908,0.1,4.591,0.066,4.591,0.066
			c7.764,0.252,17.103,0.298,27.28,0.389l0.141,0.031c17.495-0.179,37.161-0.697,54.037-2.422c1.518-0.17,3.011-0.345,4.469-0.528
			c10.04-1.296,18.868-3.055,25.368-5.347c0.758-0.244,1.376-0.521,2.163-0.896c18.104-7.726,44.147-36.665,66.633-68.945
			c3.113-4.447,6.101-8.937,9.044-13.287c10.709-16.256,20.037-32.558,26.688-46.96c4.057-8.567,7.265-16.491,9.084-23.193
			c0.676-2.358,1.334-4.585,1.679-6.735c8.56-38.538-17.737-48.752-22.321-45.195c-5.753,4.409-12.563,12.197-19.943,21.826
			c-11.48,15.377-24.518,35.719-36.996,56.041c-6.887,11.134-13.633,22.299-20.165,32.528c-3.809,6.247-7.526,12.096-10.982,17.45
			c-6.676,10.209-12.453,18.382-17.07,23.322c-2.983,3.233-10.266,7.009-19.702,10.992c-2.498,1.066-5.171,2.141-7.96,3.238
			c-15.513,6.041-34.927,12.283-52.065,17.36c-8.404,2.545-16.32,4.783-22.89,6.628
			C2063.156,1165.333,2056.157,1167.227,2056.157,1167.227z"/>
		<path style="fill:#2B478B;" d="M2148.718,1138.33c0,0-8.328,31.862,18.134,54.35c37.59-4.575,68.027-52.096,90.513-84.376
			c3.113-4.447,6.101-8.937,9.044-13.287c10.709-16.256,20.037-32.558,26.688-46.96c4.057-8.567,7.265-16.491,9.084-23.193
			c0.676-2.358,1.334-4.585,1.679-6.735c8.56-38.538-17.737-48.752-22.321-45.195c-5.753,4.409-12.563,12.197-19.943,21.826
			c-11.48,15.377-24.518,35.719-36.996,56.041c-6.887,11.134-13.633,22.299-20.165,32.528c-3.809,6.247-7.526,12.096-10.982,17.45
			c-6.676,10.209-12.453,18.382-17.07,23.322c-2.983,3.233-10.266,7.009-19.702,10.992
			C2154.18,1136.158,2151.507,1137.232,2148.718,1138.33z"/>
		<path style="fill:#FFB27D;" d="M2005.17,1153.763c7.316,1.641,18.959,3.782,26.213,2.754c0,0-21.227-5.184-15.157-10.876
			c1.104-1.036,11.478,2.317,23.296,5.025c4.846,1.11,15.303,10.496,14.615,10.663c8.821,0.831,16.987,0.956,19.629,0.988
			c0.694,0.02,0.989-0.053,0.989-0.053l2.517,23.761c0,0-1.684,0.031-4.592-0.075c-7.428,0.113-22.742,0.515-37.626,2.69
			c-20.84,3.185-32.741-9.439-37.595-17.554c-3.077-5.143-4.98-11.47-3.829-15.479
			C1994.891,1151.215,2000.71,1152.764,2005.17,1153.763z"/>
	</g>
	<g style="opacity:0.5;">
		<g>
			<polygon style="fill:#2B478B;" points="1216.9,1040.741 892.002,1040.741 925.036,798.547 1249.934,798.547 			"/>
			<polygon style="fill:#8FADEF;" points="1209.499,1033.703 901.323,1033.703 932.374,806.05 1240.549,806.05 			"/>
			<path style="fill:#FFFFFF;" d="M1085.408,892.856c-0.052,0-0.104-0.002-0.157-0.006c-0.947-0.075-1.615-0.819-1.592-1.774
				l1.064-44.583l-15.622,44.776c-0.322,0.926-1.23,1.588-2.176,1.588h-17.773c-0.759,0-1.395-0.428-1.641-1.108l-3.417-9.397
				l-6.555,9.474c-0.44,0.636-1.165,1.031-1.893,1.031h-10.663c-0.849,0-1.534-0.536-1.707-1.337l-6.807-31.428l-17.917,31.556
				c-0.416,0.734-1.205,1.21-2.005,1.21h-51.182c-1.106,0-1.882-0.897-1.731-2.004c0.151-1.107,1.17-2.004,2.277-2.004h49.864
				l19.897-35.044c0.429-0.756,1.272-1.224,2.072-1.208c0.821,0.028,1.471,0.558,1.639,1.336l7.562,34.917h8.066l8.14-11.765
				c0.45-0.648,1.242-1.07,1.936-1.03c0.741,0.016,1.356,0.442,1.599,1.107l4.25,11.688h14.911l19.288-55.281
				c0.335-0.962,1.279-1.651,2.274-1.585c0.975,0.048,1.674,0.8,1.65,1.777l-1.111,46.525l7.569-18.398
				c0.368-0.896,1.248-1.497,2.204-1.472c0.924,0.033,1.617,0.699,1.675,1.609l1.706,26.824h21.077l23.497-50.515
				c0.406-0.873,1.346-1.45,2.232-1.373c0.907,0.065,1.569,0.744,1.607,1.647l2.096,50.241h6.303l11.157-18.058
				c0.469-0.758,1.308-1.211,2.155-1.125c0.825,0.082,1.441,0.677,1.541,1.491l2.174,17.692h29.016c1.106,0,1.881,0.897,1.73,2.004
				c-0.151,1.107-1.171,2.004-2.277,2.004h-30.567c-0.914,0-1.626-0.617-1.735-1.501l-1.708-13.898l-8.813,14.265
				c-0.429,0.693-1.191,1.134-1.96,1.134h-9.241c-0.971,0-1.708-0.697-1.748-1.652l-1.838-44.067l-20.625,44.341
				c-0.382,0.823-1.227,1.379-2.091,1.379h-24.17c-0.955,0-1.686-0.674-1.745-1.611l-1.281-20.149l-8.346,20.288
				C1087.18,892.258,1086.303,892.856,1085.408,892.856z"/>
			<path style="fill:#FFFFFF;" d="M1072.97,984.047c-0.052,0-0.104-0.002-0.157-0.006c-0.947-0.075-1.615-0.819-1.592-1.774
				l1.064-44.583l-15.622,44.776c-0.322,0.926-1.23,1.588-2.176,1.588h-17.772c-0.759,0-1.395-0.429-1.641-1.108l-3.417-9.398
				l-6.555,9.475c-0.44,0.636-1.165,1.031-1.893,1.031h-10.663c-0.849,0-1.534-0.536-1.706-1.337l-6.807-31.429l-17.917,31.556
				c-0.416,0.735-1.205,1.211-2.005,1.211h-51.182c-1.106,0-1.882-0.897-1.73-2.004c0.151-1.107,1.171-2.004,2.277-2.004h49.864
				l19.897-35.044c0.43-0.757,1.272-1.224,2.072-1.208c0.821,0.028,1.471,0.558,1.639,1.336l7.563,34.917h8.065l8.14-11.765
				c0.45-0.649,1.242-1.07,1.936-1.03c0.741,0.016,1.356,0.442,1.599,1.107l4.249,11.688h14.911l19.287-55.281
				c0.335-0.962,1.279-1.651,2.274-1.585c0.975,0.048,1.674,0.801,1.65,1.778l-1.111,46.525l7.569-18.397
				c0.368-0.896,1.248-1.497,2.203-1.472c0.925,0.032,1.618,0.699,1.675,1.609l1.707,26.824h21.077l23.497-50.515
				c0.406-0.873,1.346-1.45,2.231-1.373c0.907,0.064,1.57,0.744,1.607,1.647l2.096,50.241h6.303l11.157-18.059
				c0.469-0.758,1.308-1.211,2.155-1.125c0.825,0.082,1.44,0.677,1.541,1.491l2.174,17.692h29.016c1.106,0,1.882,0.897,1.731,2.004
				c-0.151,1.107-1.171,2.004-2.277,2.004h-30.567c-0.914,0-1.626-0.617-1.735-1.501l-1.708-13.899l-8.813,14.266
				c-0.428,0.693-1.19,1.134-1.96,1.134h-9.241c-0.971,0-1.708-0.697-1.747-1.652l-1.838-44.067l-20.625,44.341
				c-0.382,0.822-1.227,1.379-2.091,1.379h-24.17c-0.955,0-1.686-0.674-1.745-1.611l-1.282-20.149l-8.346,20.287
				C1074.742,983.45,1073.865,984.047,1072.97,984.047z"/>
		</g>
		<polygon style="opacity:0.2;fill:#8EADFF;" points="1182.229,1167.277 1182.229,1040.741 931.179,1040.741 931.179,1167.277 
			931.179,1442.055 931.179,1802.191 1300.345,1802.191 1300.345,1167.277 		"/>
	</g>
	<g>
		<path style="fill:#233862;" d="M1661.556,1784.021c-0.156,7.77-1.134,15.124-3.953,18.025h-112.971
			c1.436-4.088,5.502-10.235,17.1-12.117c13.179-2.133,33.722-8.478,45.714-21.157c4.275-4.504,7.458-9.819,8.853-16.028
			c5.314-23.664,43.946,7.25,43.946,7.25S1661.805,1772.455,1661.556,1784.021z"/>
		<path style="fill:#233862;" d="M1835.728,1784.021c-0.156,7.77-1.134,15.124-3.952,18.025h-112.971
			c1.435-4.088,5.502-10.235,17.1-12.117c13.179-2.133,33.722-8.478,45.715-21.157c4.275-4.504,7.458-9.819,8.852-16.028
			c5.315-23.664,43.946,7.25,43.946,7.25S1835.978,1772.455,1835.728,1784.021z"/>
		<path style="fill:#233862;" d="M1612.905,1772.516c12.626,4.026,36.754,16.321,52.083,10.538
			c9.904-3.733,65.276-163.905,68.867-233.964c0.265-5.094,1.267-12.201,2.836-20.867c3.279-18.079,9.016-42.926,15.622-70.342
			c17.72-73.461,41.688-165.36,41.167-194.733c-0.803-45.591-135.864-9.555-135.864-9.555s-9.29,37.396-11.142,91.54
			c-3.668,107.475-13.752,289.014-41.178,415.088C1604.135,1765.569,1607.669,1770.853,1612.905,1772.516z"/>
		<path style="fill:#233862;" d="M1706.646,1263.306l65.173,507.118c0,0,41.922,5.607,66.309-0.441
			c0,0,16.562-262.905,14.82-329.441c-1.742-66.536,15.002-178.04-3.821-190.337
			C1830.302,1237.907,1706.646,1263.306,1706.646,1263.306z"/>
		<path style="fill:#2B478B;" d="M1650.163,1297.557l224.878,6.576c0,0-18.561-230.46-22.724-323.347
			c0,0-19.366-94.627-46.116-109.547c-33.369-18.613-168.766,21.142-182.553,49.904
			C1609.195,951.294,1650.163,1297.557,1650.163,1297.557z"/>
		<g>
			<path style="fill:#FFB27D;" d="M1686.51,904.899c16.578-3.275,37.807-15.715,49.855-33.353
				c-14.74-14.746-23.549-27.547-28.36-36.195c-0.262-0.458-0.501-0.906-0.734-1.339c-2.422-4.512-3.66-7.738-4.031-9.301
				l-39.673,16.248c0,0-8.815,9.401-7.411,12.829c0.75,1.833,1.452,3.593,2.106,5.28c1.789,4.595,3.238,8.653,4.4,12.17
				c3.806,11.441,4.676,17.209,4.676,17.209S1669.77,908.206,1686.51,904.899z"/>
			<path style="fill:#E2915A;" d="M1662.662,871.239c32.435-6.501,43.156-30.072,45.343-35.887c0.309-0.831,0.447-1.304,0.447-1.304
				c-0.382-0.029-0.773-0.035-1.182-0.035c-13.043,0.051-36.958,14.052-49.009,25.056
				C1660.051,863.664,1661.5,867.721,1662.662,871.239z"/>
			<path style="fill:#FFB27D;" d="M1710.735,814.027c6.468,31.106-31.22,45.433-48.083,50.217c-4.743,1.353-7.834,1.943-7.834,1.943
				c-5.674,0.728-11.827-6.159-17.475-16.169c-11.185-19.806-20.415-51.824-20.1-61.109c0.479-13.973,5.253-30.83,46.586-37.006
				C1705.172,745.731,1702.459,774.167,1710.735,814.027z"/>
			<path style="fill:#233862;" d="M1609.242,773.356c2.223-9.21,9.551-22.352,17.247-31.75
				c16.533-20.188,48.571-19.47,48.705-19.466c36.204,0.924,53.829,21.116,52.539,64.342c-1.365,45.71-19.524,48.066-19.524,48.066
				s2.59-3.587-2.659-15.509c-0.299-0.678-0.561-1.239-0.794-1.718c-1.169-2.405-1.313-5.238-0.142-7.642
				c2.418-4.962,0.063-16.009-4.301-17.566c-5.265-1.878-8.956,4.534-9.362,8.469c-0.576,2.898-2.954,4.804-6.125,4.244
				c-12.021-2.126-10.763-16.74-22.912-20.39c-12.15-3.649-28.126,10.136-44.225,9.854
				C1597.037,794.954,1607.567,780.297,1609.242,773.356z"/>
		</g>
		<path style="fill:#2B478B;" d="M1617.431,1080.648c-1.323,3.408-1.224,17.541-0.562,34.209
			c1.161,29.478,4.082,66.858,4.082,66.858l-50.652-76.409c0,0-10.229-27.903-9.988-40.577
			c0.549-28.907,63.337-143.591,63.337-143.591l40.701,63.674c0,0-24.309,48.542-38.017,76.834
			C1621.738,1071.097,1618.342,1078.289,1617.431,1080.648z"/>
		<path style="fill:#FFFFFF;" d="M1629.686,834.012c0,0,22.09-2.43,43.952-15.663c0,0,7.096,17.308,17.164,20.616
			c0,0-7.444,27.273-35.958,29.63C1635.582,870.188,1629.686,834.012,1629.686,834.012z"/>
		<g>
			<polygon style="fill:#FFFFFF;" points="1673.854,819.788 1673.638,818.35 1687.961,804.145 1690.015,802.824 			"/>
		</g>
		<g>
			<polygon style="fill:#FFFFFF;" points="1690.802,838.966 1689.382,838.732 1704.24,810.588 1703.875,814.378 			"/>
		</g>
		<path style="fill:#ABDDDA;" d="M1618.439,798.438c0,0,76.425-33.41,97.359,31.223c0,0,40.112-5.558,38.962-31.64
			c-1.151-26.081-16.993-82.465-72.935-84.382c-55.941-1.918-85.092,35.858-85.092,58.011
			C1596.734,793.802,1618.439,798.438,1618.439,798.438z"/>
		<path style="fill:#FFB27D;" d="M1696.188,1206.508c0,0-8.55,10.355-17.398,15.729c-8.837,5.374-13.014,3.072-18.388,2.302
			c-5.362-0.771-19.941,14.579-25.694,11.127c-5.754-3.452,1.726-20.137,10.932-29.158c9.193-9.01,33.15-13.198,33.15-13.198
			L1696.188,1206.508z"/>
		<g>
			<polygon style="fill:#2C3A64;" points="1662.654,1212.388 1661.129,1208.291 1679.871,1145.203 1682.302,1147.548 			"/>
		</g>
		<polygon style="fill:#2C3A64;" points="1679.871,1145.203 1689.637,1142.242 1691.093,1144.181 1682.302,1147.548 		"/>
		<path style="fill:#233862;" d="M1844.975,1029.46c0,0,0,163.854-159.492,185.281l77.111-105.649L1844.975,1029.46z"/>
		<path style="fill:#233862;" d="M1759.979,966.194c0,0-7.623,119.1-51.536,191.662l73.956-78.457l14.296-57.432L1759.979,966.194z"
			/>
		<g>
			<path style="fill:#FFB27D;" d="M1800.023,1116.755c-15.764,21.599-67.671,62.31-91.581,80.524
				c-7.503,5.73-12.255,9.229-12.255,9.229l-17.398-13.198c0,0,4.073-4.845,10.609-12.899
				c13.889-17.145,38.869-48.846,59.225-79.373c29.918-44.876,23.819-166.848,23.819-166.848
				c21.528-20.712,62.907,7.433,73.608,31.448C1856.74,989.641,1820.736,1088.38,1800.023,1116.755z"/>
			<path style="fill:#2B478B;" d="M1806.201,871.239c0,0,31.032,18.453,43.877,82.89c12.846,64.438-33.182,151.122-46.605,168.766
				c-13.425,17.644-19.945,22.63-19.945,22.63s-28.147-11.961-42.457-33.405c0,0,24.238-49.06,22.32-80.416
				c-1.68-27.49-9.397-105.958,5.945-122.067C1784.678,893.527,1806.201,871.239,1806.201,871.239z"/>
			<path style="fill:#AEC3FF;" d="M1708.442,1197.279c-7.503,5.73-12.255,9.229-12.255,9.229s-8.55,10.355-17.398,15.729
				c-8.837,5.374-13.014,3.072-18.388,2.302c-5.362-0.771-19.941,14.579-25.694,11.127c-5.754-3.452,1.726-20.137,10.932-29.158
				c9.193-9.01,33.15-13.198,33.15-13.198s4.073-4.845,10.609-12.899L1708.442,1197.279z"/>
		</g>
		<path style="fill:#233862;" d="M1617.431,1080.648c-1.323,3.408-1.224,17.541-0.562,34.209l-0.899,5.02
			c-20.176-48.742-3.533-98.533,1.262-103.527c4.807-4.994,9.102,45.297,9.102,45.297
			C1621.738,1071.097,1618.342,1078.289,1617.431,1080.648z"/>
	</g>
	<g>
		<path style="fill:#D2E0FF;" d="M1520.725,1400.565h-353.488l-154.843-222.11c-9.943-14.264-7.954-33.689,3.273-45.788
			l14.702-12.797l305.599,6.743L1520.725,1400.565z"/>
		<path style="fill:#8FADEF;" d="M1243.41,1406.363l-42.323,31.473l-193.642-260.404c-10.714-14.409-7.72-34.774,6.689-45.489
			l16.234-12.072L1243.41,1406.363z"/>
		<path style="fill:#8FADEF;" d="M1016.012,1437.836h1259.244c15.445,0,27.967-12.521,27.967-27.967l0,0
			c0-15.445-12.521-27.967-27.967-27.967H1016.012c-15.445,0-27.967,12.521-27.967,27.967l0,0
			C988.045,1425.314,1000.566,1437.836,1016.012,1437.836z"/>
		<rect x="1201.087" y="1375.328" style="fill:#8FADEF;" width="20.125" height="404.042"/>
		<rect x="2537.73" y="1375.328" style="fill:#8FADEF;" width="20.125" height="404.042"/>
		<rect x="2232.405" y="1375.328" style="fill:#8FADEF;" width="20.124" height="404.042"/>
		<rect x="1555.919" y="1375.328" style="fill:#8FADEF;" width="20.125" height="404.042"/>
		<rect x="1201.087" y="1687.146" style="fill:#8FADEF;" width="930.776" height="21.299"/>
		<rect x="2111.738" y="1687.146" style="fill:#8FADEF;" width="446.117" height="21.299"/>
		<g>
			<circle style="fill:#2B478B;" cx="1211.149" cy="1779.37" r="22.821"/>
			<path style="fill:#AEC3FF;" d="M1198.425,1779.37c0-7.027,5.697-12.724,12.724-12.724c7.028,0,12.724,5.696,12.724,12.724
				s-5.696,12.725-12.724,12.725C1204.122,1792.095,1198.425,1786.397,1198.425,1779.37z"/>
		</g>
		<g>
			<path style="fill:#2B478B;" d="M1543.161,1779.37c0-12.604,10.217-22.821,22.821-22.821c12.604,0,22.821,10.218,22.821,22.821
				c0,12.604-10.217,22.821-22.821,22.821C1553.378,1802.191,1543.161,1791.975,1543.161,1779.37z"/>
			<path style="fill:#AEC3FF;" d="M1553.257,1779.37c0-7.027,5.697-12.724,12.725-12.724c7.027,0,12.724,5.696,12.724,12.724
				s-5.697,12.725-12.724,12.725C1558.954,1792.095,1553.257,1786.397,1553.257,1779.37z"/>
		</g>
		<g>
			<path style="fill:#2B478B;" d="M2219.646,1779.37c0-12.604,10.217-22.821,22.821-22.821c12.604,0,22.82,10.218,22.82,22.821
				c0,12.604-10.217,22.821-22.82,22.821C2229.863,1802.191,2219.646,1791.975,2219.646,1779.37z"/>
			<path style="fill:#AEC3FF;" d="M2229.743,1779.37c0-7.027,5.696-12.724,12.725-12.724c7.026,0,12.724,5.696,12.724,12.724
				s-5.697,12.725-12.724,12.725C2235.439,1792.095,2229.743,1786.397,2229.743,1779.37z"/>
		</g>
		<g>
			<circle style="fill:#2B478B;" cx="2547.793" cy="1779.37" r="22.821"/>
			<path style="fill:#AEC3FF;" d="M2535.068,1779.37c0-7.027,5.697-12.724,12.725-12.724s12.725,5.696,12.725,12.724
				s-5.697,12.725-12.725,12.725S2535.068,1786.397,2535.068,1779.37z"/>
		</g>
		<path style="fill:#FFB27D;" d="M1322.31,1214.275c0,0,44.417-33.182,113.899-16.049c33.892,8.357,209.424,50.445,209.424,50.445
			l-69.59,115.169c0,0-292.571,8.597-310.208-19.987C1238.234,1299.118,1322.31,1214.275,1322.31,1214.275z"/>
		<path style="fill:#E8945B;" d="M1353.803,1311.425c0,0,68.605-0.885,87.642,4.35c19.036,5.235,4.283,19.036,2.855,19.513
			C1442.872,1335.763,1353.803,1311.425,1353.803,1311.425z"/>
		<polygon style="fill:#8FADEF;" points="1034.08,1163.573 1034.08,1394.133 1062.333,1394.133 1062.333,1195.143 		"/>
		<g>
			<path style="fill:#FFB27D;" d="M1288.337,1265.312c0,0-16.019-46.99-56.633-47.21l42.289-27.878l12.916-8.509
				c0,0,7.082,6.329,15.591,13.829c11.374,10.032,25.289,22.168,28.192,24.071
				C1335.766,1222.956,1297.636,1261.838,1288.337,1265.312z"/>
			<path style="fill:#E8945B;" d="M1302.5,1195.544c-12.564,18.456-49.266,22.9-49.266,22.9l20.759-28.221l12.916-8.509
				C1286.909,1181.715,1293.991,1188.044,1302.5,1195.544z"/>
			<g>
				<path style="fill:#FFB27D;" d="M1304.079,1172.474c0,0-27.73,61.765-65.928,43.904c-38.199-17.86-67.504-21.918-51.414-62.108
					c16.09-40.191,34.223-40.983,48.423-38.122C1249.359,1119.008,1310.308,1155.946,1304.079,1172.474z"/>
				<path style="fill:#2C3A64;" d="M1235.97,1200.243c0,0-12.372,2.426-14.245-4.951c-1.874-7.376,6.924-5.077,8.932-8.583
					s-3.824-16.095-12.479-22.492c-8.655-6.398,26.478-29.621,30.854-45.429c4.375-15.808-5.416-38.721-28.256-24.646
					c-13.422,8.271-81.355,49.071-67.672,90.789c17.441,53.179,81.408,40.157,90.649,38.877s9.479-5.364,9.479-5.364
					S1246.973,1201.19,1235.97,1200.243z"/>
			</g>
		</g>
		<path style="fill:#8FADEF;" d="M2561,1437.836h-353.055c-5.053,0-9.188-4.135-9.188-9.188v-205.185
			c0-5.053,4.135-9.188,9.188-9.188H2561c5.053,0,9.188,4.135,9.188,9.188v205.185
			C2570.188,1433.701,2566.053,1437.836,2561,1437.836z"/>
		<path style="fill:#AEC3FF;" d="M2585.164,1437.836h-353.055c-5.053,0-9.188-4.135-9.188-9.188v-205.185
			c0-5.053,4.135-9.188,9.188-9.188h353.055c5.053,0,9.188,4.135,9.188,9.188v205.185
			C2594.352,1433.701,2590.217,1437.836,2585.164,1437.836z"/>
		<path style="fill:#FFB27D;" d="M1511.085,1338.963c-38.38-5.211-62.507-5.203-114.912-18.667v-0.001l-0.038-0.009
			c-39.157-10.061-126.528-31.654-126.528-31.654s-16.145,38.391,0.354,63.463c16.498,25.071,117.65,31.16,117.65,31.16l0,0
			c26.502,3.988,51.693,6.341,66.365,6.008c40.928-0.93,143.405-14.076,143.405-14.076l1.27-23.092
			C1598.651,1352.095,1577.369,1347.963,1511.085,1338.963z"/>
		<path style="fill:#FFB27D;" d="M1589.768,1352.095c0,0,44.418,1.155,56.474,4.385c12.057,3.229,37.438,22.408,31.728,24.24
			s-45.211-3.085-51.874-2.609c-6.662,0.476-19.036,2.855-28.078-1.903C1588.975,1371.447,1589.768,1352.095,1589.768,1352.095z"/>
		<path style="fill:#ABDDDA;" d="M1452.358,1198.227c0,0-70.714,44.735-90.918,99.939c-20.204,55.205-14.592,172.277-14.592,172.277
			s117.856,7.614,232.346,0s488.353,15.771,545.595,11.488c57.242-4.282,73.969-9.993,73.969-9.993v-206.627
			c0,0-287.784-8.946-400.584-21.795S1535.202,1199.945,1452.358,1198.227z"/>
	</g>
	<g>
		<path style="fill:#D2E0FF;" d="M1182.895,265.194v157.05h-22.698V268.727C1167.613,267.466,1175.179,266.28,1182.895,265.194z"/>
		<path style="fill:#8FADEF;" d="M1151.987,424.376c0-12.71,10.304-23.014,23.014-23.014s23.013,10.304,23.013,23.014
			c0,12.71-10.303,23.013-23.013,23.013S1151.987,437.086,1151.987,424.376z"/>
		<path style="fill:#D2E0FF;" d="M1069.283,667.035c0,0-47.763-122.29,64.422-215.49s304.005-72.828,366.017-13.977
			L1069.283,667.035z"/>
		<g>
			
				<ellipse transform="matrix(0.904 -0.4275 0.4275 0.904 -122.3982 612.0907)" style="fill:#8FADEF;" cx="1302.034" cy="578.647" rx="250.521" ry="143.306"/>
			
				<ellipse transform="matrix(0.904 -0.4275 0.4275 0.904 -122.3983 612.0869)" style="opacity:0.5;fill:#D2E0FF;" cx="1302.034" cy="578.647" rx="150.882" ry="86.309"/>
			<g>
				<path style="fill:#D2E0FF;" d="M1273.959,587.553c-3.941-8.336,4.677-20.679,19.25-27.57c14.572-6.89,29.581-5.718,33.522,2.618
					c3.941,8.336-4.677,20.679-19.249,27.57C1292.91,597.061,1277.901,595.889,1273.959,587.553z"/>
				<path style="fill:#D2E0FF;" d="M1141.392,572.698c-7.221-15.272,8.567-37.885,35.265-50.509
					c26.698-12.624,54.194-10.476,61.415,4.795c7.221,15.272-8.568,37.886-35.266,50.509
					C1176.108,590.117,1148.612,587.97,1141.392,572.698z"/>
				<path style="fill:#D2E0FF;" d="M1133.958,682.069c-7.221-15.271,8.568-37.885,35.266-50.509
					c26.697-12.623,54.194-10.476,61.415,4.796c7.221,15.272-8.568,37.885-35.266,50.508
					C1168.675,699.488,1141.179,697.341,1133.958,682.069z"/>
				<path style="fill:#D2E0FF;" d="M1296.769,499.231c-7.221-15.272,8.567-37.885,35.265-50.509
					c26.698-12.624,54.194-10.477,61.415,4.795c7.221,15.272-8.568,37.885-35.266,50.509
					C1331.486,516.65,1303.989,514.503,1296.769,499.231z"/>
				<path style="fill:#D2E0FF;" d="M1399.352,556.583c-7.221-15.272,8.568-37.885,35.266-50.509
					c26.697-12.624,54.194-10.476,61.415,4.795c7.221,15.272-8.568,37.886-35.266,50.509
					C1434.069,574.002,1406.572,571.856,1399.352,556.583z"/>
				<path style="fill:#D2E0FF;" d="M1289.099,676.383c-7.221-15.271,8.568-37.885,35.265-50.509
					c26.698-12.623,54.194-10.476,61.415,4.795c7.221,15.272-8.568,37.886-35.265,50.509
					C1323.816,693.802,1296.319,691.655,1289.099,676.383z"/>
			</g>
		</g>
	</g>
	<g>
		<path style="fill:#D2E0FF;" d="M2045.031,190.483v231.761h-22.698V191.27C2029.911,190.895,2037.478,190.633,2045.031,190.483z"/>
		<path style="fill:#8FADEF;" d="M2053.242,424.376c0-12.71-10.304-23.014-23.014-23.014s-23.014,10.304-23.014,23.014
			c0,12.71,10.304,23.013,23.014,23.013S2053.242,437.086,2053.242,424.376z"/>
		<path style="fill:#D2E0FF;" d="M2135.946,667.035c0,0,47.762-122.29-64.423-215.49c-112.186-93.2-304.006-72.828-366.018-13.977
			L2135.946,667.035z"/>
		<g>
			
				<ellipse transform="matrix(0.4275 -0.904 0.904 0.4275 566.5504 2051.8635)" style="fill:#8FADEF;" cx="1903.195" cy="578.647" rx="143.306" ry="250.521"/>
			<path style="opacity:0.5;fill:#D2E0FF;" d="M1766.793,514.152c-20.376,43.093,24.176,106.902,99.509,142.522
				c75.333,35.62,152.921,29.562,173.296-13.531c20.376-43.093-24.176-106.902-99.51-142.521
				C1864.756,465.001,1787.168,471.06,1766.793,514.152z"/>
			<g>
				<path style="fill:#D2E0FF;" d="M1931.27,587.553c3.941-8.336-4.677-20.679-19.25-27.57c-14.572-6.89-29.581-5.718-33.522,2.618
					c-3.941,8.336,4.677,20.679,19.25,27.57C1912.319,597.061,1927.328,595.889,1931.27,587.553z"/>
				<path style="fill:#D2E0FF;" d="M2063.838,572.698c7.221-15.272-8.568-37.885-35.266-50.509
					c-26.697-12.624-54.194-10.476-61.415,4.795c-7.221,15.272,8.567,37.886,35.266,50.509
					C2029.12,590.117,2056.617,587.97,2063.838,572.698z"/>
				<path style="fill:#D2E0FF;" d="M2071.271,682.069c7.222-15.271-8.567-37.885-35.265-50.509
					c-26.697-12.623-54.194-10.476-61.415,4.796c-7.222,15.272,8.567,37.885,35.266,50.508
					C2036.554,699.488,2064.05,697.341,2071.271,682.069z"/>
				<path style="fill:#D2E0FF;" d="M1908.461,499.231c7.221-15.272-8.568-37.885-35.266-50.509
					c-26.697-12.624-54.194-10.477-61.415,4.795s8.567,37.885,35.266,50.509C1873.743,516.65,1901.239,514.503,1908.461,499.231z"/>
				<path style="fill:#D2E0FF;" d="M1805.877,556.583c7.222-15.272-8.567-37.885-35.266-50.509
					c-26.697-12.624-54.193-10.476-61.414,4.795c-7.221,15.272,8.567,37.886,35.266,50.509
					C1771.16,574.002,1798.656,571.856,1805.877,556.583z"/>
				<path style="fill:#D2E0FF;" d="M1916.131,676.383c7.221-15.271-8.568-37.885-35.266-50.509
					c-26.697-12.623-54.194-10.476-61.415,4.795c-7.221,15.272,8.567,37.886,35.266,50.509
					C1881.413,693.802,1908.909,691.655,1916.131,676.383z"/>
			</g>
		</g>
	</g>
	<path style="fill:#92CCC6;" d="M1561.297,1209.104c0,0-25.63,5.593-33.685,37.267c0,0,138.043,20.496,261.184,16.304l4.693-19.631
		L1561.297,1209.104z"/>
	<g>
		<g>
			<rect x="896.087" y="1565.938" style="fill:#8FADEF;" width="5.997" height="220.142"/>
			<rect x="1139.192" y="1565.938" style="fill:#8FADEF;" width="5.997" height="220.142"/>
			<rect x="893.882" y="1416.883" style="fill:#AEC3FF;" width="251.353" height="154.541"/>
			<rect x="815.277" y="1416.883" style="fill:#8FADEF;" width="78.605" height="154.541"/>
			<rect x="899.085" y="1419.733" style="fill:#E3EDFF;" width="243.106" height="71.687"/>
			<rect x="899.085" y="1494.609" style="fill:#E3EDFF;" width="243.106" height="73.608"/>
			<rect x="896.087" y="1647.775" style="fill:#8FADEF;" width="247.876" height="3.934"/>
			<g>
				<path style="fill:#131375;" d="M882.212,1786.08c0-8.663,7.023-15.685,15.685-15.685c8.662,0,15.685,7.021,15.685,15.685
					c0,8.662-7.022,15.685-15.685,15.685C889.234,1801.765,882.212,1794.742,882.212,1786.08z"/>
				<path style="fill:#CEDAEF;" d="M888.697,1786.08c0-5.081,4.119-9.2,9.2-9.2c5.081,0,9.2,4.119,9.2,9.2s-4.119,9.199-9.2,9.199
					C892.816,1795.279,888.697,1791.161,888.697,1786.08z"/>
			</g>
			<rect x="816.55" y="1565.938" style="fill:#8FADEF;" width="5.997" height="220.142"/>
			<rect x="816.55" y="1647.775" style="fill:#8FADEF;" width="247.875" height="3.934"/>
			<g>
				<path style="fill:#131375;" d="M802.675,1786.08c0-8.663,7.022-15.685,15.685-15.685c8.662,0,15.685,7.021,15.685,15.685
					c0,8.662-7.022,15.685-15.685,15.685C809.697,1801.765,802.675,1794.742,802.675,1786.08z"/>
				<path style="fill:#CEDAEF;" d="M809.16,1786.08c0-5.081,4.119-9.2,9.2-9.2c5.081,0,9.2,4.119,9.2,9.2s-4.119,9.199-9.2,9.199
					C813.279,1795.279,809.16,1791.161,809.16,1786.08z"/>
			</g>
			<g>
				<path style="fill:#131375;" d="M1125.279,1786.08c0-8.663,7.022-15.685,15.685-15.685s15.685,7.021,15.685,15.685
					c0,8.662-7.022,15.685-15.685,15.685S1125.279,1794.742,1125.279,1786.08z"/>
				<path style="fill:#CEDAEF;" d="M1131.765,1786.08c0-5.081,4.119-9.2,9.2-9.2c5.081,0,9.2,4.119,9.2,9.2s-4.119,9.199-9.2,9.199
					C1135.883,1795.279,1131.765,1791.161,1131.765,1786.08z"/>
			</g>
			<path style="fill:#91B5F8;" d="M1036.471,1457.654h-31.016c-1.764,0-3.193-1.43-3.193-3.193l0,0c0-1.763,1.429-3.192,3.193-3.192
				h31.016c1.764,0,3.193,1.43,3.193,3.192l0,0C1039.664,1456.225,1038.234,1457.654,1036.471,1457.654z"/>
			<path style="fill:#91B5F8;" d="M1036.471,1535.652h-31.016c-1.764,0-3.193-1.43-3.193-3.193l0,0c0-1.764,1.429-3.193,3.193-3.193
				h31.016c1.764,0,3.193,1.43,3.193,3.193l0,0C1039.664,1534.223,1038.234,1535.652,1036.471,1535.652z"/>
		</g>
		<g>
			<path style="fill:#ED985F;" d="M746.848,1139.984c-9.333-29.967-49.915-35.585-66.243-8.78c-2.936,4.82-4.794,10.36-4.957,16.704
				c-0.899,35.135,68.393,171.132,77.591,183.161c16.745,21.9,117.816,74.568,117.816,74.568l21.478-3.13
				c0,0-12.143-7.632-24.716-20.183c-25.969-25.926-63.826-68.074-70.761-73.912C785.154,1298.395,764.567,1196.88,746.848,1139.984
				z"/>
			<path style="fill:#B5453C;" d="M776.183,968.087c0.562-2.255-49.027,22.412-51.542,25.201
				c-23.257,25.798-16.625,59.463-3.318,59.786c8.535,0.207,6.881,14.396,6.881,14.396l95.08-40.222
				C823.283,1027.249,811.835,960.492,776.183,968.087z"/>
			<path style="fill:#B5453C;" d="M671.646,1774.18l-20.576-3.024c0,0-69.181-54.977-79.483-157.561
				c-1.051-10.439-1.27-21.037-0.492-31.719c0.091-1.231-0.045-2.464-0.718-3.499c0-0.008-0.008-0.016-0.023-0.03
				c-2.215-3.395-7.725-11.898-15.186-23.993c-7.355-11.913-19.941-34.438-33.789-59.717
				c-24.945-45.521-53.987-99.961-63.95-117.302c-31.741-55.265-16.441-92.425-16.441-92.425s88.547-8.753,112.811-29.979
				l8.738,13.47c0,0,19.185,84.934,18.278,85.327c0.945,2.888,1.905,5.828,2.88,8.821c15.141,46.73,32.557,105.14,42.051,152.708
				c5.337,26.768,8.164,50.087,6.645,65.977c-0.521,5.449,0.113,13.825,1.564,24.166
				C642.529,1666.356,671.646,1774.18,671.646,1774.18z"/>
			<path style="fill:#233862;" d="M714.806,1800.212h-85.841c0,0-2.058-13.083,2.427-23.009c4.296-9.524,10.419-9.827,0.782-24.756
				c5.455,5.616,22.989,7.938,35.399,6.27c1.521,2.465,9.803,19.004,14.882,22.653
				C688.065,1785.401,713.078,1783.965,714.806,1800.212z"/>
			<path style="fill:#93312C;" d="M583.697,1362.55c-7.499,41.355-25.209,110.181-62.317,132.087
				c-24.945-45.521-53.987-99.961-63.95-117.302c-31.741-55.265-16.441-92.425-16.441-92.425s88.547-8.753,112.811-29.979
				l8.738,13.47c0,0,19.185,84.934,18.278,85.327C581.762,1356.616,582.722,1359.557,583.697,1362.55z"/>
			<path style="fill:#B5453C;" d="M523.493,1291.297l0.291-16.056c-31.987,4.034-110.293-38.224-110.293-38.224
				s-33.464,22.258-38.045,85.821c-2.236,31.025-16.382,162.233-17.946,201.414c-0.571,14.199-0.76,24.334-0.825,28.384
				c0.007,0.021,0.006,0.029,0.004,0.039c-0.02,1.235-0.599,2.326-1.36,3.305c-6.619,8.412-12.361,17.325-17.333,26.568
				c-48.811,90.814-23.285,214.213-23.285,214.213l11.335-2.882c0,0,41.272-127.922,68.245-183.255
				c4.579-9.385,8.737-16.685,12.216-20.912c10.143-12.317,20.837-33.237,31.378-58.413
				c19.926-47.599,39.271-110.405,53.068-159.038C491.916,1372.439,523.493,1291.297,523.493,1291.297z"/>
			<path style="fill:#FFB27D;" d="M710.683,1184.145c-52.292-12.002-18.884-85.482-15.854-84.189
				c7.245-1.477,23.158-14.198,37.393-39.045l1.923,1.669l32.118,28.158c0,0-7.425,10.952-13.67,21.679
				c-4.88,8.398-9.029,16.673-8.37,19.513C746.809,1133.962,724.631,1187.35,710.683,1184.145z"/>
			<path style="fill:#233862;" d="M743.7,1129.561c0,0,9.194,18.145,14.099,33.86c4.905,15.717,17.179,65.702,17.179,65.702
				s-25.312,28.886-60.524,27.199c0,0-18.934-29.637-12.261-56.401C708.864,1173.156,743.7,1129.561,743.7,1129.561z"/>
			<path style="fill:#ED985F;" d="M766.261,1090.745c0,0-7.427,10.938-13.67,21.679c-19.968-12.31-19.99-37.031-18.451-49.838
				L766.261,1090.745z"/>
			<path style="fill:#FFB27D;" d="M767.151,1104.848c0,0-48.484-26.979-31.219-56.914c17.266-29.935,22.637-53.578,54.323-37.618
				c31.686,15.96,31.06,30.821,27.727,42.215C814.649,1063.924,780.208,1111.095,767.151,1104.848z"/>
			<path style="fill:#B5453C;" d="M826.172,1035.07c-2.221-13.291-8.973-14.56-13.68-13.673
				c-17.906-29.611-47.159-18.055-47.159-18.055c-15.625,19.607-38.214,22.954-38.214,22.954s5.627,10.469,28.808,16.948
				c7.081,1.979,15.118,0.78,22.869-1.828c-16.083,8.968-32.902,12.402-32.902,12.402c30.549,2.796,59.615-25.133,62.629-28.12
				c1.41,4.328,3.882,13.389,2.402,20.014c-2.011,9.003-10.002,25.308-5.123,27.417
				C805.801,1073.13,829.502,1055.003,826.172,1035.07z"/>
			<path style="fill:#233862;" d="M382.962,1800.212h-85.841c0,0-2.058-13.083,2.426-23.009c4.296-9.524,11.025-13.853,9.414-25.376
				c5.455,5.616,14.345,11.905,26.755,10.235c1.521,2.466,9.815,15.658,14.895,19.308
				C356.221,1785.401,381.235,1783.965,382.962,1800.212z"/>
			<path style="fill:#2B478B;" d="M716.838,1242.398c-11.047,3.852-26.544,5.971-42.402,7.689
				c-22.573,2.465-45.879,4.144-58.085,9.021c-2.385,0.945-9.328,3.851-16.283,8.888v0.013c0,0-0.173,0.107-0.48,0.36
				c-2.305,1.679-4.61,3.624-6.729,5.81c-3.238,3.332-6.063,7.223-7.875,11.687c-4.478,11.061,1.452,41.722,5.25,58.485
				c1.532,6.743-1.652,13.712-7.795,16.896c-8.581,4.438-17.017,8.542-25.305,12.286c-0.439,0.2-0.866,0.387-1.306,0.587
				c0.08-1.706,0.107-3.398,0.107-5.051c0.013-11.566-1.453-21.188-1.453-21.188c-2.039,11.673-9.728,24.279-16.897,33.979
				c-115.198,46.227-195.684,26.132-194.364,3.105c4.544-79.953,58.458-147.952,58.458-147.952
				c100.554-116.931,303.953-147.713,303.953-147.713s9.741-1.172,21.494,12.953c16.91,20.348,17.75,25.651,17.75,25.651
				S749.338,1231.059,716.838,1242.398z"/>
			<path style="fill:#233862;" d="M674.429,1250.086c-22.572,2.464-45.876,4.149-58.084,9.018
				c-4.989-74.547,30.191-130.621,30.191-130.621S669.485,1221.875,674.429,1250.086z"/>
			<path style="fill:#FFB27D;" d="M698.134,1114.06c0,0-56.571,5.59-61.106,42.348c-4.535,36.758,54.236,186.477,62.653,200.034
				c15.323,24.681,105.552,109.281,105.552,109.281l16.63-10.078c0,0-64-108.347-73.91-118.486
				C732.396,1321.24,717.29,1126.793,698.134,1114.06z"/>
			<path style="fill:#2B478B;" d="M727.119,1184.283c0,0,5.81-94.775-66.731-71.859c-72.541,22.916,11.259,185.931,11.259,185.931
				s42.576-2.103,57.675-39.251L727.119,1184.283z"/>
			<path style="fill:#233862;" d="M590.233,1344.352c1.532,6.743-1.652,13.712-7.795,16.896
				c-8.581,4.438-17.017,8.542-25.305,12.286c-0.439-1.412-0.839-2.892-1.199-4.464c-1.306-5.837-1.906-12.819-1.453-21.188
				c1.919-35.393,26.024-62.189,38.377-73.703c-3.238,3.332-6.063,7.223-7.875,11.687
				C580.505,1296.927,586.435,1327.588,590.233,1344.352z"/>
			<path style="fill:#233862;" d="M705.631,1089.303c0,0,8.856-11.195,14.842-10.834c0,0,24.207,33.888,24.402,49.438
				C744.875,1127.907,714.683,1087.73,705.631,1089.303z"/>
			<path style="fill:#ED985F;" d="M937.862,1417.229c0,0-12.871,0.23-15.649-0.17c-2.726-0.393-6.372-1.578-10.037-1.708
				c-3.604-0.132-6.916,1.036-10.301,1.731c-0.504,0.104-1.018,0.146-1.533,0.146h-21.347c0,0-2.142-1.023-4.485-4.792
				c-1.011-1.632-1.148-5.517-3.454-6.799c-12.925-7.214,21.478-3.13,21.478-3.13s21.599-0.394,23.593,1.096
				C919.674,1406.272,938.665,1416.205,937.862,1417.229z"/>
			<path style="fill:#ED985F;" d="M878.996,1417.234c0,0,13.105,3.783,16.667,6.211l3.761,2.375c0,0,2.175-2.429-1.251-5.127
				c-1.808-1.424-6.799-5.585-6.961-10.361C891.049,1405.557,876.252,1409.728,878.996,1417.234z"/>
			<path style="fill:#FFB27D;" d="M821.863,1455.645c0,0,9.366,8.321,16.489,10.078c7.123,1.758,15.218,22.156,16.513,25.07
				c1.295,2.914-6.8-1.295-10.038-6.26s-5.449-6.907-6.394-5.828s0.566,14.678,5.962,22.233c5.397,7.555,8.634,14.246,4.749,13.814
				c-3.886-0.432-26.982-6.044-31.731-20.074c-4.749-14.031-1.266-14.523-12.181-28.956
				C794.318,1451.291,821.863,1455.645,821.863,1455.645z"/>
			<g>
				<g>
					<path style="fill:#FFFFFF;" d="M752.002,1060.844l1.141-0.535c-11.148-23.747-11.514-23.9-11.808-24.024l-0.244,0.581
						l-0.46,0.424C741.243,1038.106,747.766,1051.823,752.002,1060.844z"/>
				</g>
				<g>
					
						<rect x="733.086" y="1038.767" transform="matrix(0.9708 -0.24 0.24 0.9708 -232.8463 207.091)" style="fill:#FFFFFF;" width="1.261" height="41.295"/>
				</g>
				<path style="fill:#FFFFFF;" d="M800.397,1080.063c0,0-20.378-3.903-48.747-22.594c0,0-4.883,17.415-14.59,21.31
					C737.06,1078.778,777.737,1148.109,800.397,1080.063z"/>
			</g>
			<path style="fill:#ABDDDA;" d="M823.283,1025.128c0,0,20.049-10.079,16.138-25.99c-3.911-15.911-20.828-47.947-62.125-53.057
				c-41.297-5.11-89.77,39.517-84.917,71.787c5.769,38.365,35.825,49.602,35.825,49.602S769.762,984.5,823.283,1025.128z"/>
		</g>
		<g>
			<path style="fill:#ABDDDA;" d="M1058.537,1361.066v55.816h-56.275v-55.993c0-0.543,0.023-1.074,0.083-1.605
				c0.59-6.41,4.71-11.794,10.389-14.202c4.049-1.711,6.894-5.418,7.119-9.81l0.413-8.063h20.659l0.13,8.04
				c0.083,4.38,2.857,8.146,6.894,9.845c5.702,2.408,9.845,7.792,10.495,14.19
				C1058.502,1359.874,1058.537,1360.465,1058.537,1361.066z"/>
			<polygon style="fill:#91CECF;" points="1042.399,1330.751 1018.297,1330.751 1018.936,1324.455 1041.76,1324.455 			"/>
			<path style="fill:#FFFFFF;" d="M1058.537,1361.066v35.995h-56.275v-36.172c0-0.543,0.023-1.074,0.083-1.605h56.099
				C1058.502,1359.874,1058.537,1360.465,1058.537,1361.066z"/>
		</g>
		<g>
			<path style="fill:#ABDDDA;" d="M1117.369,1388.975v27.908h-28.138v-27.997c0-0.271,0.012-0.537,0.042-0.803
				c0.295-3.205,2.355-5.896,5.194-7.101c2.024-0.855,3.447-2.709,3.559-4.905l0.207-4.031h10.33l0.065,4.02
				c0.042,2.19,1.429,4.073,3.447,4.923c2.851,1.204,4.923,3.896,5.248,7.095
				C1117.351,1388.379,1117.369,1388.674,1117.369,1388.975z"/>
			<polygon style="fill:#91CECF;" points="1109.299,1373.816 1097.248,1373.816 1097.568,1370.668 1108.98,1370.668 			"/>
			<path style="fill:#FFFFFF;" d="M1117.369,1388.975v17.997h-28.138v-18.086c0-0.271,0.012-0.537,0.042-0.803h28.049
				C1117.351,1388.379,1117.369,1388.674,1117.369,1388.975z"/>
		</g>
	</g>
	<path style="fill:#FFB27D;" d="M1620.951,1181.716l-22.248,1.935l-28.404-78.344c0,0,9.676-16.455,46.233-0.637L1620.951,1181.716z
		"/>
	<path style="fill:#9DB8F4;" d="M1620.951,1181.716l-22.04,5.473l-7.224-22.888c0,0,8.876-6.22,27.815-6.444L1620.951,1181.716z"/>
	<g>
		<path style="fill:#2C3A64;" d="M1615.975,1218.244c-0.077,0-0.156-0.008-0.235-0.022c-0.677-0.129-1.121-0.783-0.992-1.46
			l13.554-71.068l-6.066-12.693c-0.297-0.622-0.033-1.367,0.589-1.665c0.622-0.297,1.367-0.033,1.665,0.589l6.242,13.063
			c0.114,0.24,0.149,0.511,0.1,0.772l-13.63,71.47C1617.086,1217.827,1616.563,1218.244,1615.975,1218.244z"/>
	</g>
	<path style="fill:#AEC3FF;" d="M1607.876,1212.376c0,0-24.556-4.735-19.635-19.189c4.92-14.454,22.954-34.728,29.952-27.3
		c7.54,8.004,14.646,20.933,15.243,29.986C1634.034,1204.926,1620.271,1215.633,1607.876,1212.376z"/>
	<g>
		<path style="fill:#8FADEF;" d="M2653.006,1523.192v7.036c0,2.464,0.798,4.475,1.771,4.475h256.768
			c0.974,0,1.771-2.011,1.771-4.475v-7.036c0-2.459-0.798-4.476-1.771-4.476h-256.768
			C2653.804,1518.717,2653.006,1520.733,2653.006,1523.192z"/>
		<path style="fill:#BBD0FF;" d="M2653.006,1523.192v7.036c0,2.464,0.732,4.475,1.625,4.475h203.847
			c0.894,0,1.625-2.011,1.625-4.475v-7.036c0-2.459-0.731-4.476-1.625-4.476h-203.847
			C2653.738,1518.717,2653.006,1520.733,2653.006,1523.192z"/>
		
			<rect x="2717.994" y="1534.705" transform="matrix(-1 -1.224647e-16 1.224647e-16 -1 5618.2783 3335.1064)" style="fill:#AEC3FF;" width="182.29" height="265.696"/>
		
			<rect x="2666.909" y="1534.705" transform="matrix(-1 -1.224647e-16 1.224647e-16 -1 5516.1084 3335.1064)" style="fill:#D2E0FF;" width="182.29" height="265.696"/>
		<g>
			<g>
				<path style="fill:#AEC3FF;" d="M2676.703,1542.211h162.698v243.521h-162.698V1542.211z M2837.645,1543.968h-159.186v240.008
					h159.186V1543.968z"/>
			</g>
			<g>
				<rect x="2677.581" y="1622.77" style="fill:#AEC3FF;" width="160.942" height="1.757"/>
			</g>
			<g>
				<rect x="2677.581" y="1704.898" style="fill:#AEC3FF;" width="160.942" height="1.757"/>
			</g>
			<path style="fill:#AEC3FF;" d="M2741.561,1557.916h29.865c1.449,0,2.635-1.186,2.635-2.635l0,0c0-1.449-1.186-2.635-2.635-2.635
				h-29.865c-1.449,0-2.635,1.186-2.635,2.635l0,0C2738.926,1556.73,2740.111,1557.916,2741.561,1557.916z"/>
			<path style="fill:#AEC3FF;" d="M2741.561,1638.229h29.865c1.449,0,2.635-1.186,2.635-2.635l0,0c0-1.45-1.186-2.636-2.635-2.636
				h-29.865c-1.449,0-2.635,1.186-2.635,2.636l0,0C2738.926,1637.044,2740.111,1638.229,2741.561,1638.229z"/>
			<path style="fill:#AEC3FF;" d="M2741.561,1721.95h29.865c1.449,0,2.635-1.186,2.635-2.635l0,0c0-1.449-1.186-2.636-2.635-2.636
				h-29.865c-1.449,0-2.635,1.187-2.635,2.636l0,0C2738.926,1720.765,2740.111,1721.95,2741.561,1721.95z"/>
		</g>
	</g>
	<g>
		<g>
			<path style="fill:#AEC3FF;" d="M2798.044,1411.984c0,0-17.076-19.921-1.054-32.575c0,0,11.705-7.086,21.248-6.511
				c0,0-13.522,22.676-9.148,24.932c4.375,2.255,13.246-26.354,13.246-26.354s26.635-2.583,35.202,1.536
				c0,0-22.769,18.633-17.973,19.742c4.795,1.109,29.388-17.179,29.388-17.179s24.789,4.218,23.467,19.34
				c-1.321,15.122-9.862,19.791-13.617,19.39c-3.754-0.402-25.714-8.785-26.192-5.709c-0.478,3.075,12.741,13.128,21.997,13.599
				c0,0-17.477,19.273-29.092,13.711c-11.614-5.563-12.606-14.38-19.847-17.687c-7.239-3.308-13.421-3.299-10.432,0.073
				c2.989,3.373,16.093,6.651,20.233,13.976s7.855,12.264-4.161,10.455c-12.018-1.808-31.551-10.601-32.408-20.67
				S2798.044,1411.984,2798.044,1411.984z"/>
			<g>
				<path style="fill:#AEC3FF;" d="M2880.24,1395.324c0,0-67.328-2.595-82.196,16.66c0,0-3.288,9.849-13.407,18.816l-1.577,4.299
					c0,0,11.667-12.302,15.842-13.046C2798.901,1422.054,2792.373,1398.198,2880.24,1395.324z"/>
				<path style="fill:#AEC3FF;" d="M2784.637,1430.801c0,0-14.451,10.688-15.455,29.783l2.623,0.235c0,0,4.615-19.745,12.958-27.467
					C2793.104,1425.631,2784.637,1430.801,2784.637,1430.801z"/>
			</g>
		</g>
		<g>
			<path style="fill:#D4E4F8;" d="M2738.34,1386.932c0,0,27.164-15.212,14.488-35.856c0,0-10.142-12.676-21.007-15.936
				c0,0,5.795,30.785,0,31.51c-5.795,0.724-3.984-34.77-3.984-34.77s-28.612-13.763-39.84-12.677c0,0,17.747,30.062,11.952,29.337
				s-25.715-31.147-25.715-31.147s-29.336-5.433-34.045,11.952c-4.708,17.385,2.897,26.077,7.244,27.163
				c4.346,1.087,32.233,0.725,31.509,4.347c-0.724,3.621-19.558,9.416-30.061,6.157c0,0,11.59,28.611,26.802,27.163
				c15.211-1.448,19.92-10.865,29.336-11.59c9.417-0.725,16.299,1.811,11.59,4.347c-4.708,2.535-20.645,0.83-28.25,7.296
				s-13.763,10.45,0.362,13.348s39.478,1.087,44.548-9.778S2738.34,1386.932,2738.34,1386.932z"/>
			<g>
				<path style="fill:#D4E4F8;" d="M2653.59,1334.777c0,0,76.059,24.628,84.75,52.154c0,0-0.361,12.313,7.244,26.438v5.433
					c0,0-7.968-18.471-12.314-21.006C2733.27,1397.797,2750.292,1373.893,2653.59,1334.777z"/>
				<path style="fill:#D4E4F8;" d="M2745.584,1413.37c0,0,11.729,17.812,5.042,39.493l-3.018-0.811c0,0,2.93-23.881-3.207-35.892
					S2745.584,1413.37,2745.584,1413.37z"/>
			</g>
		</g>
		<g>
			<path style="fill:#D2E0FF;" d="M2781.555,1365.952c0,0-35.806-20.052-19.097-47.265c0,0,13.368-16.709,27.69-21.006
				c0,0-7.639,40.58,0,41.535s5.252-45.832,5.252-45.832s37.717-18.143,52.517-16.71c0,0-23.394,39.626-15.755,38.671
				s33.896-41.059,33.896-41.059s38.671-7.161,44.877,15.756c6.207,22.916-3.818,34.374-9.548,35.807
				c-5.729,1.432-42.49,0.954-41.536,5.729c0.955,4.774,25.781,12.413,39.627,8.116c0,0-15.277,37.716-35.329,35.807
				c-20.052-1.91-26.259-14.323-38.671-15.277c-12.413-0.955-21.484,2.387-15.278,5.729c6.207,3.342,27.214,1.095,37.239,9.619
				c10.025,8.523,18.142,13.774-0.478,17.594c-18.62,3.819-52.039,1.433-58.723-12.89
				C2781.555,1365.952,2781.555,1365.952,2781.555,1365.952z"/>
			<g>
				<path style="fill:#D4E4F8;" d="M2893.271,1297.204c0,0-100.258,32.464-111.717,68.748c0,0,0.479,16.232-9.548,34.852v7.161
					c0,0,10.503-24.348,16.232-27.689C2788.239,1380.275,2765.801,1348.766,2893.271,1297.204z"/>
				<path style="fill:#D4E4F8;" d="M2772.007,1400.804c0,0-15.462,23.479-6.647,52.06l3.979-1.068c0,0-3.861-31.479,4.228-47.313
					C2781.655,1388.65,2772.007,1400.804,2772.007,1400.804z"/>
			</g>
		</g>
		<path style="fill:#AEC3FF;" d="M2780.349,1514.842c38.737,0,70.14-31.402,70.14-70.14h-140.279
			C2710.209,1483.439,2741.611,1514.842,2780.349,1514.842z"/>
		<path style="fill:#AEC3FF;" d="M2851.457,1518.411H2709.24l0,0c0-4.779,3.875-8.653,8.654-8.653h124.908
			C2847.582,1509.758,2851.457,1513.632,2851.457,1518.411L2851.457,1518.411z"/>
		<rect x="2707.903" y="1444.702" style="fill:#BBD0FF;" width="144.18" height="2.151"/>
	</g>
	<path style="fill:#2E3552;" d="M2969.516,1808.92H191.013c-1.864,0-3.389-1.524-3.389-3.389v-1.741
		c0-1.864,1.525-3.389,3.389-3.389h2778.502c1.864,0,3.389,1.524,3.389,3.389v1.741
		C2972.904,1807.396,2971.38,1808.92,2969.516,1808.92z"/>
</g>
</svg>
